<svg xmlns="http://www.w3.org/2000/svg" xmlns:xlink="http://www.w3.org/1999/xlink" xmlns:svgjs="http://svgjs.com/svgjs" version="1.1" width="512" height="512" x="0" y="0" viewBox="0 0 512 512" style="enable-background:new 0 0 512 512" xml:space="preserve" class=""><g><path fill="#38abab" d="M431.25 77c6.776-4.498 39.298-18.233 45.749-22.056a455.318 455.318 0 0 1-7.267-2.55c5.124-2.087 9.218-3.849 11.004-4.908-5.82-1.984-11.682-3.882-17.562-5.752a975.95 975.95 0 0 1-9.081 4.758c-28.292-11.088-55.857-23.83-85.556-33.271-21.54-6.852-50.601-5.837-74.359-1.152-17.54 3.467-47.713 30.487-65.524 29.122L173.048 59.02c-20.538-4.171-132.626 61.123-143.313 84.792 34.53 24.027 98.431 39.59 135.113 64.833l20.014 32.482 55.503 27.753 8.511 165.457c-3.922 11.169-6.048 46.771-5.662 59.052 16.862.566 76.758 14.079 93.027 12.942 41.721-2.906 74.512-16.367 116.487-15.369-19.203-25.441-54.648-46.238-61.725-78.633 0 0-47.273-138.942-34.256-240.829 5.613-43.918 66.545-89.216 74.503-94.5z" data-original="#889a60" class=""/><path fill="#99dede" d="M203.176 266.059c1.171 58.854-14.258 98.784-30.136 153.717-4.223 14.613 34.25 20.775 46.11 27.302 28.61 15.758 151.681 25.719 165.023 13.348 0 0-39.189-55.369-60.251-159.587-13.8-68.292-8.529-107.624-1.967-144.37 1.92-10.76 32.077-72.66 36.13-83.121 2.095-5.403-69.35-37.649-109.814-41.256-80.803-7.205-123.263 3.5-125.323 8.977-2.114 5.617 45.147 83.737 53.305 106.363 5.802 16.116 17.621 44.019 17.732 60.879z" data-original="#d0e2a4" class=""/><path fill="#e6d2c1" d="M428.375 208.846c1.566-43.856-37.894-56.267-63.43-66.567L353.2 162.642c2.593 33.854-26.271 42.471-51.05 54.079-14.151-15.038-43.791-34.315-55.515-37.361-14.99-3.898-71.627.721-84.313 13.106-10.911 10.653-46.52 45.37-47.022 69.984-.569 27.816 13.433 84.858 20.315 95.366 16.028 24.486 34.795 39.714 48.548 32.433 13.753-7.28 35.997-135.091 35.997-135.091 20.396-1.283 33.948 3.444 49.744 2.416a29.52 29.52 0 0 0 .639 3.32c3.394 13.393 11.878 17.904 22.177 19.285-2.729.857-5.334 1.624-7.697 2.212-10.302 2.56-23.13 11.319-24.116 25.202-1.581 22.376 24.943 28.083 44.464 29.484-15.531 5.234-29.447 18.276-20.348 35.874 3.446 6.661 14.681 10.899 27.601 13.307-12.414 1.715-23.467 8.231-20.216 22.622 3.444 15.257 40.439 23.898 57.093 22.642 26.086-1.972 57.457.652 69.396-25.102 6.354-13.71-1.677-22.98-12.402-33.023 8.694-5.947 15.022-14.365 16.834-26.531 2.551-17.151-6.519-27.328-16.914-37.951a50.626 50.626 0 0 0 2.289-2.406c14.122-15.972 3.662-42.732-2.25-60.965 12.726-10.81 21.445-23.401 21.921-36.698z" data-original="#ffb886" class=""/><path d="M485.204 47.325C478.303 44.979 381.083 1.116 318.384.007c-9.471-.168-43.679 2.728-65.416 24.126a508.966 508.966 0 0 0-26.724-.723c-39.834 0-113.478 6.624-118.407 19.806-1.844 4.894.275 8.486 14.163 28.778-40.621 20.266-91.532 53.729-99.4 71.182a7.1 7.1 0 0 0 2.432 8.75c17.514 12.21 85.56 27.361 115.648 53.582-14.575 17.568-33.98 46.107-31.691 71.393 8.802 96.601 41.204 119.74 64.136 123.57-.707 2.41-7.674 26.224-7.674 26.224-.792 2.749-.223 5.612 1.611 8.041 5.721 7.615 37.028 15.678 73.715 22.299-1.977 14.947-3.365 28.43-3.2 33.786a7.11 7.11 0 0 0 4.664 6.458C268.87 507.042 300.301 512 335.632 512c47.935 0 92.964-8.931 122.294-16.432a7.066 7.066 0 0 0 4.948-4.54 7.073 7.073 0 0 0-1.043-6.639c-7.224-9.556-45.394-43.815-52.119-53.509 7.712-4.064 14.262-10.238 18.689-19.77 6.119-13.255.502-25.75-7.385-35.874 6.204-6.224 10.745-14.284 12.313-24.823 2.598-17.474-4.958-28.754-14.105-38.705 12.675-17.474 10.798-39.598-1.384-60.145 11.963-11.136 20.04-24.074 20.547-38.083.915-25.847-11.067-41.87-26.23-52.717-11.479-8.211-37.198-18.362-37.198-18.362 20.784-27.79 65.06-72.781 109.302-81.353a7.13 7.13 0 0 0 5.749-6.5 7.12 7.12 0 0 0-4.806-7.223zm-258.959-9.694c14.528 0 28.847.626 42.583 1.846 31.056 2.766 73.695 25.098 86.417 34.376-40.844 43.451-49.787 91.463-47.531 137.374-13.708-13.293-34.497-28.285-53.096-33.691-9.641-2.801-38.459-4.015-55.561-1.479-14.115-37.327-43.493-80.237-62.244-107.607-5.015-7.318-10.139-14.805-13.073-19.528 13.67-4.318 53.793-11.291 102.505-11.291zM38.977 144.049c13.257-15.383 56.789-43.508 90.935-60.491 17.794 26.083 42.157 62.834 54.746 94.578-14.305 1.958-24.013 5.598-34.303 16.402-25.506-21.623-88.3-43.161-111.378-50.489zm84.18 131.572c-2.289-25.346 26.596-61.004 42.294-76.196 16.731-16.196 76.189-11.343 83.929-8.667 24.823 8.579 56.058 28.432 57.699 42.474.995 8.544-9.632 15.094-14.462 16.791-18.822 6.617-68.136-2.429-72.401-2.429-2.043 0-6.821 0-9.655 3.721-1.124 1.472-1.763 4.334-1.541 6.181 6.626 54.653-23.723 113.961-32.141 129.126-15.86-2.151-45.333-18.942-53.722-111.001zm56.959 151.601s8.532-29.119 10.537-36.07c10.148-18.625 36.976-73.733 32.98-129.154 3.289.306 33.894 4.638 45.275 4.981 2.37 6.91 5.981 11.826 10.253 15.331-10.182 5.209-20.041 14.793-20.183 27.825-.247 22.851 20.253 30.994 30.548 33.613-1.678 1.718-13.205 12.091-9.564 26.45 2.626 10.346 9.091 16.159 14.556 19.06-4.573 6.804-7.257 14.314-4.313 22.839 8.162 23.674 65.804 27.769 75.521 27.2a546.467 546.467 0 0 0 7.925 17.578c-53.443 3.618-175.035-19.751-193.535-29.653zm119.64-136.895c7.712 1.199 23.505.628 23.505.628 21.922 0 57.05-11.478 82.754-29.802 8.536 14.902 9.594 33.439.512 43.704-16.348 18.502-54.494 26.825-83.645 28.183-29.165 1.358-48.579-5.111-49.708-21.905-.696-10.364 10.935-19.76 26.582-20.808zm143.49 194.186c-28.15 6.572-66.847 13.265-107.614 13.265-31.539 0-59.666-4.098-83.692-12.167.384-6.086 1.46-15.694 2.835-26.159 42.687 7.053 119.431 12.471 133.888 7.242 3.023-1.093 2.957-5.667 1.46-8.513-.114-.218-3.764-7.247-9.333-19.875 5.166-.497 10.295-1.234 15.225-2.422 7.852 12.518 42.188 43.34 47.231 48.629zm-27.752-79.388c-8.318 17.888-30.501 19.22-52.513 20.786-11.054.787-51.268-3.033-58.889-16.926-2.631-4.79-.266-11.589 4.545-14.651 12.756 3.081 38.47 3.975 50.494 2.887 12.974-1.173 34.009-3.92 50.494-13.381 6.216 7.823 8.86 14.803 5.869 21.285zm3.782-56.794c-3.488 23.36-26.822 32.316-61.452 35.417-32.26 2.889-54.301-1.536-61.221-10.916-8.954-12.14 3.583-24.273 14.353-25.944 3.782.239 7.745.375 11.926.375 27.671 0 64.272-8.039 86.28-25.479 7.091 7.794 11.774 15.309 10.114 26.547zm4.887-135.35c-.734 20.647-29.443 39.376-57.604 53.514-17.836 8.953-65.358 17.346-82.394-.043 5.204-.602 9.731-1.656 13.646-3.192 7.598-2.986 19.153-10.944 21.917-21.111 2.905-10.687-.849-17.145-1.654-18.472 16.04-7.178 33.521-15.063 41.669-30.997 3.241-6.344 1.427-15.094 3.237-23.325 2.128-9.686 8.807-12.916 8.807-12.916 24.041 9.487 53.628 21.417 52.376 56.542zm-68.832-67.166c-7.655 12.319-5.916 27.349-7.067 37.084-1.156 9.736-14.258 17.59-26.614 23.491-1.503-43.382 8.267-87.233 48.081-127.05 1.958-1.958 2.712-5.778 1.764-8.375-3.973-10.954-58.377-39.128-95.319-44.884 9.755-9.392 33.71-11.852 42.209-11.852 45.64 0 140.225 38.139 142.49 39.042-47.851 19.166-90.59 68.432-105.544 92.544z" fill="#000000" data-original="#000000" class=""/></g></svg>