<svg version="1.1" xmlns="http://www.w3.org/2000/svg" viewBox="0 0 108.57884647611695 88.43612792118739" width="108.57884647611695" height="88.43612792118739">
  <!-- svg-source:excalidraw -->
  
  <defs>
    <style>
      @font-face {
        font-family: "Virgil";
        src: url("https://unpkg.com/@zsviczian/excalidraw@0.12.0-obsidian-9/dist/excalidraw-assets/Virgil.woff2");
      }
      @font-face {
        font-family: "Cascadia";
        src: url("https://unpkg.com/@zsviczian/excalidraw@0.12.0-obsidian-9/dist/excalidraw-assets/Cascadia.woff2");
      }
    </style>
  </defs>
  <rect x="0" y="0" width="108.57884647611695" height="88.43612792118739" fill="#FFF6F0"/><g stroke-linecap="round"><g transform="translate(53.705731533024675 23.90041640227645) rotate(0 -0.5399402632964865 18.15781430129826)" fill-rule="evenodd"><path d="M0.82 1.61 L-3.14 -7.85 L-8.17 -11.75 L-15.72 -13.37 L-37.7 -15.22 L-38.33 43.55 L-18.9 43.27 L1.08 49.15 L9.58 46.71 L38.06 42.88 L39.52 -12.25 L31.5 -14.36 L5.64 -12.97 L3.42 -9.93 L1.81 1.95" stroke="none" stroke-width="0" fill="#FFF6F0" fill-rule="evenodd"/><path d="M0.58 0.77 C-0.14 -0.61, -1.05 -5.96, -3.39 -8.33 C-5.72 -10.7, -8.09 -12.67, -13.42 -13.43 C-18.75 -14.18, -30.97 -13.88, -35.37 -12.85 C-39.77 -11.82, -39.23 -15.48, -39.83 -7.26 C-40.44 0.96, -39.57 27.81, -39.03 36.47 C-38.48 45.13, -40 43.18, -36.57 44.69 C-33.13 46.2, -24.45 44.49, -18.41 45.52 C-12.37 46.55, -4.83 50.78, -0.33 50.85 C4.17 50.93, 4.34 46.84, 8.59 45.97 C12.85 45.1, 20.34 45.71, 25.2 45.65 C30.05 45.6, 35.89 47.38, 37.73 45.62 C39.57 43.87, 36.22 43.08, 36.24 35.13 C36.26 27.18, 37.87 6.18, 37.86 -2.07 C37.85 -10.32, 39.41 -12.55, 36.19 -14.38 C32.96 -16.21, 23.5 -13.39, 18.52 -13.05 C13.55 -12.71, 8.93 -13.27, 6.35 -12.33 C3.78 -11.39, 4.22 -9.47, 3.08 -7.42 C1.94 -5.36, 0.15 -1.07, -0.48 -0.02 M-0.57 0.12 C-1.58 -1.58, -2.85 -7.99, -4.6 -10.01 C-6.35 -12.02, -5.96 -11.17, -11.05 -11.98 C-16.13 -12.79, -30.59 -15.2, -35.1 -14.86 C-39.62 -14.51, -37.69 -18.83, -38.15 -9.9 C-38.61 -0.98, -38.3 29.8, -37.88 38.68 C-37.46 47.56, -39.23 42.24, -35.61 43.38 C-32 44.53, -21.81 44.48, -16.19 45.55 C-10.57 46.62, -6.07 49.85, -1.9 49.8 C2.28 49.76, 4.34 46.35, 8.86 45.27 C13.38 44.19, 20.59 43.23, 25.23 43.32 C29.88 43.41, 34.97 47.28, 36.75 45.81 C38.53 44.34, 35.86 42.54, 35.93 34.51 C36.01 26.47, 37.12 5.32, 37.18 -2.4 C37.25 -10.12, 39.35 -9.73, 36.33 -11.83 C33.31 -13.94, 23.76 -15.09, 19.08 -15.03 C14.4 -14.97, 11.01 -12.26, 8.22 -11.44 C5.44 -10.63, 3.48 -12.11, 2.37 -10.16 C1.25 -8.21, 2.03 -1.5, 1.54 0.23" stroke="black" stroke-width="2" fill="none"/></g></g><g stroke-linecap="round"><g transform="translate(54.06569170855579 24.080408524014103) rotate(0 -0.2699701316482219 24.838046353802156)"><path d="M0.77 -0.51 C0.83 7.51, 0.48 40.31, 0.31 48.68 M-0.29 -1.82 C-0.3 6.27, -0.09 40.88, -0.19 49.69" stroke="black" stroke-width="2" fill="none"/></g></g><g stroke-linecap="round"><g transform="translate(10.149154353001961 17.960892996432392) rotate(0 44.140268885056514 30.2376174623775)"><path d="M-0.51 0.85 C-0.77 7.87, -1.06 34.54, -1 42.91 C-0.93 51.28, -0.24 48.59, -0.11 51.08 C0.01 53.58, -1.61 57.09, -0.24 57.89 C1.14 58.7, 4.57 56.1, 8.13 55.91 C11.69 55.72, 16.99 56.23, 21.11 56.78 C25.24 57.32, 29.8 58.48, 32.88 59.2 C35.97 59.92, 38 61.58, 39.62 61.11 C41.25 60.65, 41.71 56.76, 42.61 56.41 C43.5 56.05, 43.86 58.16, 45 58.97 C46.13 59.79, 47.98 61.24, 49.43 61.28 C50.88 61.33, 50.59 60.15, 53.7 59.25 C56.81 58.35, 63.84 56.46, 68.1 55.89 C72.35 55.32, 76.37 55.74, 79.2 55.82 C82.03 55.9, 83.7 57.61, 85.06 56.37 C86.43 55.13, 86.77 50.92, 87.4 48.39 C88.04 45.86, 88.97 49.22, 88.9 41.21 C88.83 33.2, 87.35 7.33, 86.99 0.34 M1.43 0.25 C1.48 6.82, 1.57 32.74, 1.19 40.92 C0.81 49.09, -0.58 46.79, -0.86 49.29 C-1.14 51.8, -2.31 54.86, -0.49 55.96 C1.32 57.06, 6.77 55.92, 10.05 55.89 C13.33 55.86, 15.34 55.39, 19.18 55.78 C23.02 56.17, 29.86 57.34, 33.12 58.23 C36.37 59.11, 36.88 61.07, 38.71 61.11 C40.54 61.14, 42.97 58.81, 44.1 58.44 C45.23 58.07, 44.47 58.74, 45.48 58.87 C46.49 59, 48.53 59.19, 50.18 59.22 C51.84 59.25, 52.38 59.74, 55.41 59.03 C58.44 58.31, 64.54 55.58, 68.36 54.92 C72.17 54.26, 75.55 54.85, 78.31 55.07 C81.07 55.29, 83.31 57.12, 84.91 56.24 C86.51 55.36, 87.35 52.68, 87.9 49.78 C88.45 46.88, 88.02 47.03, 88.22 38.85 C88.42 30.67, 89.04 7.35, 89.12 0.7" stroke="black" stroke-width="2" fill="none"/></g></g><g stroke-linecap="round"><g transform="translate(23.74682186346746 16.677950911586493) rotate(0 10.79267885471242 1.9823355314812545)"><path d="M0.85 -1 C3 -0.83, 10.06 -0.19, 13.69 0.48 C17.32 1.14, 21.12 2.51, 22.63 3.01 M-0.16 1.09 C1.79 1.51, 9.11 1.58, 12.87 2.03 C16.63 2.49, 21.23 3.45, 22.42 3.82" stroke="black" stroke-width="1" fill="none"/></g></g><g stroke-linecap="round"><g transform="translate(23.74682186346746 21.743912128701538) rotate(0 10.79267885471242 1.9823355314812545)"><path d="M-1 0.25 C1.33 0.36, 9.87 0.67, 13.47 1.49 C17.08 2.31, 19.36 4.88, 20.63 5.16 M0.68 -0.66 C2.9 -0.94, 8.82 -0.77, 12.54 -0.08 C16.27 0.6, 21.6 2.79, 23.02 3.45" stroke="black" stroke-width="1" fill="none"/></g></g><g stroke-linecap="round"><g transform="translate(22.865813302824392 37.602581653877394) rotate(0 10.79267885471242 1.9823355314812545)"><path d="M0.25 0.04 C2.52 0.12, 10.73 -1.09, 14.48 -0.52 C18.24 0.05, 21.73 2.61, 22.78 3.46 M-1.08 -0.99 C1.06 -0.7, 10.13 -0.4, 14.09 0.52 C18.04 1.43, 21.55 4.21, 22.64 4.51" stroke="black" stroke-width="1" fill="none"/></g></g><g stroke-linecap="round"><g transform="translate(59.42878779675931 53.24096958554418) rotate(0 12.004124532293872 -1.4316757277307772)"><path d="M0.04 1.05 C1.18 0.84, 1.96 -0.22, 5.87 -1.01 C9.78 -1.79, 20.38 -3.35, 23.5 -3.65 M-1.4 0.55 C0.2 0.02, 4.1 -1.95, 8.08 -2.5 C12.06 -3.05, 19.62 -2.89, 22.47 -2.74" stroke="black" stroke-width="1" fill="none"/></g></g><g stroke-linecap="round"><g transform="translate(59.86929207708073 44.65085631246251) rotate(0 12.004124532293872 -1.4316757277307772)"><path d="M1.05 -0.96 C2.34 -1.42, 4.33 -2.49, 8.02 -2.71 C11.72 -2.93, 20.55 -2.11, 23.22 -2.27 M0.14 1.15 C1.36 0.85, 3.44 -0.53, 7.7 -1.44 C11.97 -2.35, 22.93 -4.05, 25.71 -4.3" stroke="black" stroke-width="1" fill="none"/></g></g><g stroke-linecap="round" transform="translate(67.5614559053559 18.023604704705747) rotate(0 4.364765680072807 7.371079974666401)"><path d="M1.62 -1.22 L10.36 -1.92 L7.48 13.79 L-1.1 16.35" stroke="none" stroke-width="0" fill="#99DEDE"/><path d="M0.87 -0.37 C2.07 0.5, 5.35 -0.49, 9.24 0.15 M-0.2 0.24 C3.38 0.46, 5.79 0.18, 8.75 -0.1 M9.73 -1.26 C8.93 5.34, 9.88 7.4, 8.71 13.91 M8.63 0.49 C8.14 3.19, 9.51 6.49, 9.06 14.31 M8.06 15.45 C5.44 14.71, 3.2 15.19, -0.69 15.4 M8.35 14.66 C6.62 14.42, 4.28 15.16, -0.28 14.86 M0.92 15.76 C1.16 12.06, -0.67 9.09, -1.29 -0.12 M-0.27 14.53 C0.33 9.26, 0.6 3.58, 0.71 -0.1" stroke="transparent" stroke-width="0.5" fill="none"/></g><g stroke-linecap="round"><g transform="translate(68.23916793667587 19.32106495356146) rotate(0 0.11012607008041186 5.506480224110874)"><path d="M2.79 -1.19 C2.12 1.25, -1.21 10.67, -1.61 12.4 M0.86 -4.3 C0.87 -2.49, 4.16 5.54, 3.8 8.15" stroke="black" stroke-width="1" fill="none"/></g></g><g stroke-linecap="round"><g transform="translate(74.40640458126933 17.999522659248385) rotate(0 0.330407663589682 6.387510874765439)"><path d="M-1.19 -1.83 C-0.47 -0.14, 2.05 10.25, 2.05 12.96 M3.36 3.35 C4.03 6.73, 0.35 15.62, 0.57 16.69" stroke="black" stroke-width="1" fill="none"/></g></g><g stroke-linecap="round"><g transform="translate(71.91789061239848 56.300116350064) rotate(0 5.416047392585597 2.221856945446177)" fill-rule="evenodd"><path d="M-1.92 -1.25 L9.76 -0.76 L12.44 4.63 L-0.01 3.35" stroke="none" stroke-width="0" fill="#99DEDE" fill-rule="evenodd"/><path d="M0.53 0.07 C3.59 0.83, 8.75 0.9, 9.87 -0.09 M0.52 -0.45 C2.91 0.04, 5.35 -0.06, 10.24 -0.08 M11.08 0.67 C10.57 1.77, 10.55 2.87, 10.99 4.59 M10.74 0.52 C10.85 1.55, 10.69 2.64, 10.77 4.15 M10.86 4.42 C9.05 3.4, 6.83 4.05, -0.95 4.39 M10.43 4.76 C9.05 4.04, 6.36 3.9, 0.02 4.3 M0.1 4.24 C0.08 2.44, -0.07 1.58, 0.11 -0.03 M0.04 4.64 C0.04 3.49, -0.02 2.28, -0.14 0.18" stroke="transparent" stroke-width="0.5" fill="none"/></g></g><g stroke-linecap="round"><g transform="translate(59.86929207708073 61.61081599179096) rotate(0 12.004124532293872 -1.4316757277307772)"><path d="M0.6 0.08 C1.69 -0.04, 2.12 -1.11, 6.05 -1.5 C9.99 -1.88, 21.38 -1.92, 24.22 -2.23 M-0.55 -0.92 C0.97 -1.32, 4.34 -2.7, 8.36 -3.25 C12.38 -3.8, 21.15 -4.36, 23.56 -4.24" stroke="black" stroke-width="1" fill="none"/></g></g><g stroke-linecap="round"><g transform="translate(36.86734955242838 48.67914594019766) rotate(0 -1.7719044328934501 2.6087851750568234)" fill-rule="evenodd"><path d="M-0.51 0.45 L0.71 -5.93 L12.67 -2.94 L10.92 12.32 L-4.92 8.73 L-14.32 7.51 L-12.81 0.69 L-0.86 0.65" stroke="none" stroke-width="0" fill="#99DEDE" fill-rule="evenodd"/><path d="M-0.44 0.4 C-0.2 -1.22, -1.15 -3.44, -1.53 -6.38 M0.11 0.02 C-0.59 -2.61, -1.27 -5.26, -0.99 -7.05 M-1.73 -6.77 C2 -6.66, 7.15 -3.13, 10.72 -1.71 M-0.97 -6.47 C0.97 -5.84, 3.7 -5.51, 10.39 -2.04 M11.74 -3.71 C11.63 0.7, 8.87 4.54, 8.11 11.7 M11.6 -3.03 C10.42 2.16, 9.68 8.07, 9.83 12.48 M9.72 10.72 C4.06 11.6, -0.67 8.88, -4.85 7.68 M9.45 12.66 C4.48 11.31, -0.65 9.96, -5.02 7.65 M-4.17 8.09 C-7.12 8.41, -9.35 8.9, -13.78 7.75 M-4.66 8.38 C-6.28 8.32, -8.64 7.84, -13.73 8.45 M-13.02 7.44 C-13.3 6.61, -13.67 4.21, -14.87 1.84 M-13.45 8.03 C-13.86 6.41, -13.62 5.08, -14.29 1.99 M-13.31 3.3 C-8.54 1.45, -3.32 0.73, -0.35 -0.82 M-13.82 1.6 C-10.41 2.07, -4.59 1.31, 0.09 -0.16 M0 0 C0 0, 0 0, 0 0 M0 0 C0 0, 0 0, 0 0" stroke="transparent" stroke-width="0.5" fill="none"/></g></g><g stroke-linecap="round"><g transform="translate(24.187385050486057 45.531909053128345) rotate(0 10.79267885471242 1.9823355314812687)"><path d="M-0.78 0.71 C1.4 0.87, 10.07 0.61, 13.64 1.08 C17.21 1.54, 19.4 2.91, 20.64 3.5 M1.02 0.03 C3 -0.16, 9.13 -1.47, 12.8 -0.71 C16.47 0.05, 21.67 4.05, 23.03 4.57" stroke="black" stroke-width="1" fill="none"/></g></g><g stroke-linecap="round"><g transform="translate(23.52656972330675 54.122007599535834) rotate(0 10.79267885471242 1.9823355314812687)"><path d="M0.71 0.21 C3.04 0.25, 10.67 -1.04, 14.07 -0.51 C17.47 0.03, 19.76 2.54, 21.12 3.42 M-0.38 -0.73 C1.84 -0.5, 10.04 -0.33, 13.46 0.53 C16.87 1.4, 18.54 4.1, 20.11 4.46" stroke="black" stroke-width="1" fill="none"/></g></g><g stroke-linecap="round"><g transform="translate(30.504547327114153 29.962149203375873) rotate(30.28450271367122 5.416047392585597 0.6254103867473475)" fill-rule="evenodd"><path d="M0.36 -0.01 L8.96 -1.07 L9.89 3.33 L-0.78 2.31" stroke="none" stroke-width="0" fill="#99DEDE" fill-rule="evenodd"/><path d="M0.54 -0.8 C1.96 -0.86, 5.28 -0.09, 11.05 -2.52 M-0.15 -0.45 C2.96 -0.18, 6.25 -0.96, 10.52 -1.21 M9.75 -1.51 C10.53 -0.84, 10.68 -0.24, 10.87 1.96 M10.1 -1.7 C10.23 -0.66, 10.73 0.49, 10.84 1.65 M10.59 0.67 C6.9 1.22, 2.86 3.41, -0.8 3.89 M10.31 1.64 C6.37 2.5, 2.59 3.1, 0.12 2.66 M0.24 2.97 C0.01 1.86, -0.06 1.17, 0.05 0.25 M0.12 2.81 C0.09 1.86, -0.12 1.03, -0.08 0.12" stroke="transparent" stroke-width="0.5" fill="none"/></g></g><g stroke-linecap="round"><g transform="translate(23.52656972330675 29.893506394787494) rotate(0 10.79267885471242 1.9823355314812545)"><path d="M0.64 -0.95 C2.68 -1, 9.37 -1.06, 12.97 -0.1 C16.57 0.86, 20.61 4.29, 22.24 4.8 M-0.49 1.17 C1.29 1.26, 8.06 0.87, 11.78 1.15 C15.49 1.44, 20.46 2.5, 21.82 2.89" stroke="black" stroke-width="1" fill="none"/></g></g><g stroke-linecap="round"><g transform="translate(95.00540515216477 19.193952338560337) rotate(0 -17.725904796211097 28.322909177613383)"><path d="M0 0 C-0.24 16.14, -0.49 32.28, -0.77 50.87 M0 0 C-0.21 14.12, -0.43 28.25, -0.77 50.87 M-0.77 50.87 C-7.44 51.62, -14.1 52.37, -28.13 53.95 M-0.77 50.87 C-7.38 51.61, -13.99 52.35, -28.13 53.95 M-28.13 53.95 C-30.88 54.96, -33.63 55.98, -35.45 56.65 M-28.13 53.95 C-30.52 54.83, -32.91 55.71, -35.45 56.65" stroke="black" stroke-width="0.5" fill="none"/></g></g><g stroke-linecap="round"><g transform="translate(12.541422235694483 16.881874439340834) rotate(0 18.68927702867039 29.093601810686522)"><path d="M0 0 C0 19.59, 0 39.18, 0 55.49 M0 0 C0 15.02, 0 30.05, 0 55.49 M0 55.49 C1.78 55.57, 3.56 55.65, 8.48 55.88 M0 55.49 C2.74 55.61, 5.49 55.74, 8.48 55.88 M8.48 55.88 C12.01 55.23, 15.54 54.59, 21.19 53.56 M8.48 55.88 C11.07 55.4, 13.65 54.93, 21.19 53.56 M21.19 53.56 C27.36 55.33, 33.53 57.09, 37.38 58.19 M21.19 53.56 C27.36 55.32, 33.52 57.08, 37.38 58.19" stroke="black" stroke-width="0.5" fill="none"/></g></g></svg>