<svg version="1.1" xmlns="http://www.w3.org/2000/svg" viewBox="0 0 309.07336940879213 517.2249974940283" width="309.07336940879213" height="517.2249974940283">
  <!-- svg-source:excalidraw -->
  
  <defs>
    <style>
      @font-face {
        font-family: "Virgil";
        src: url("https://unpkg.com/@zsviczian/excalidraw@0.12.0-obsidian-9/dist/excalidraw-assets/Virgil.woff2");
      }
      @font-face {
        font-family: "Cascadia";
        src: url("https://unpkg.com/@zsviczian/excalidraw@0.12.0-obsidian-9/dist/excalidraw-assets/Cascadia.woff2");
      }
    </style>
  </defs>
  <rect x="0" y="0" width="309.07336940879213" height="517.2249974940283" fill="#E6D2C1"/><g stroke-linecap="round"><g transform="translate(238.35055274391084 507.0234418994377) rotate(0 -83.81386803951477 -229.59913607357274)" fill-rule="evenodd"><path d="M0 0 L-25.86 -237.94 L-47.96 -247.35 L43.26 -307.54 L59.72 -353.15 L60.72 -362.07 L60.19 -372.9 L28.68 -440.13 L21.63 -447.33 L13.81 -452.81 L7.14 -456.37 L0.47 -458.01 L-26.21 -442.69 L-47.2 -442.17 L-66.65 -441.09 L-82.76 -435.44 L-84.62 -431.33 L-82.45 -423.77 L-77.2 -416.7 L-72.51 -411.51 L-68.61 -407.73 L-65 -404.8 L-56.9 -401.12 L-49.14 -398.11 L-41.38 -395.94 L-30.91 -394.04 L-23.51 -394.06 L-14.11 -393.59 L-10.14 -397.11 L-7.33 -401.01 L-2.82 -410.52 L1.41 -421.81 L1.88 -407.7 L1.43 -400.41 L-0.94 -393.12 L-6.11 -384.19 L14.58 -377.6 L22.1 -373.37 L6.11 -373.13 L-7.52 -374.31 L-15.99 -374.78 L-7.05 -366.79 L4.7 -358.32 L17.08 -347.82 L10.37 -348.6 L1.73 -351.68 L32.64 -317.83 L13.66 -330.16 L-23.7 -352.27 L-44.05 -362.44 L-57.16 -361.66 L-64.01 -359.12 L-77.7 -359.12 L-91.2 -351.88 L-109.2 -342.68 L-113.01 -336.61 L-116.05 -330.16 L-118.39 -325.17 L-120.72 -318.65 L-123.68 -308.44 L-123.48 -325.07 L-122.7 -343.66 L-132.48 -348.36 L-150.48 -330.62 L-169.7 -313.42 L-181.98 -305.19 L-174.55 -320.06 L-163.98 -333.56 L-161.24 -342.56 L-181.81 -349.01 L-186.16 -361.09 L-196.26 -376.99 L-203.88 -378.52 L-216.61 -385.21 L-204.09 -386.58 L-223.07 -400.67 L-205.85 -399.3 L-204.48 -417.3 L-195.29 -435.88 L-198.22 -415.93 L-177.92 -366.32 L-174.47 -364.7 L-142.85 -367.8 L-140.35 -372.17 L-138.35 -376.8 L-146.96 -445.89 L-160.46 -459.2 L-199.79 -450.79 L-217.79 -419.29 L-227.57 -402.27 L-228.35 -393.07 L-227.37 -377.61 L-221.11 -361.18 L-220.33 -308.12 L-219.74 -295.6 L-212.89 -275.65 L-195.29 -234.76 L-194.7 -220.28 L-194.31 -210.5 L-191.96 -206.39 L-187.85 -202.87 L-183.74 -198.95 L-191.96 -1.16 L-0.23 -0.37" stroke="none" stroke-width="0" fill="#006666" fill-rule="evenodd"/><path d="M0 0 C-6.04 -55.6, -12.09 -111.21, -25.86 -237.94 M0 0 C-9.48 -87.26, -18.97 -174.52, -25.86 -237.94 M-25.86 -237.94 C-33.21 -241.07, -40.56 -244.2, -47.96 -247.35 M-25.86 -237.94 C-30.78 -240.04, -35.7 -242.13, -47.96 -247.35 M-47.96 -247.35 C-22.43 -264.19, 3.1 -281.04, 43.26 -307.54 M-47.96 -247.35 C-12.28 -270.89, 23.4 -294.43, 43.26 -307.54 M43.26 -307.54 C48.4 -321.79, 53.55 -336.04, 59.72 -353.15 M43.26 -307.54 C48.67 -322.52, 54.08 -337.51, 59.72 -353.15 M59.72 -353.15 C60.11 -356.58, 60.49 -360.01, 60.72 -362.07 M59.72 -353.15 C60.04 -355.98, 60.36 -358.8, 60.72 -362.07 M60.72 -362.07 C60.52 -366.18, 60.32 -370.3, 60.19 -372.9 M60.72 -362.07 C60.59 -364.8, 60.45 -367.54, 60.19 -372.9 M60.19 -372.9 C49.92 -394.83, 39.64 -416.75, 28.68 -440.13 M60.19 -372.9 C52.86 -388.53, 45.54 -404.17, 28.68 -440.13 M28.68 -440.13 C27.24 -441.6, 25.8 -443.08, 21.63 -447.33 M28.68 -440.13 C26.27 -442.6, 23.85 -445.06, 21.63 -447.33 M21.63 -447.33 C18.77 -449.33, 15.91 -451.34, 13.81 -452.81 M21.63 -447.33 C19.72 -448.67, 17.8 -450.01, 13.81 -452.81 M13.81 -452.81 C11.56 -454.01, 9.3 -455.22, 7.14 -456.37 M13.81 -452.81 C11.38 -454.11, 8.95 -455.41, 7.14 -456.37 M7.14 -456.37 C5.51 -456.77, 3.89 -457.17, 0.47 -458.01 M7.14 -456.37 C5.28 -456.83, 3.42 -457.29, 0.47 -458.01 M0.47 -458.01 C-5.16 -454.78, -10.79 -451.55, -26.21 -442.69 M0.47 -458.01 C-7.63 -453.36, -15.73 -448.71, -26.21 -442.69 M-26.21 -442.69 C-34.27 -442.49, -42.33 -442.29, -47.2 -442.17 M-26.21 -442.69 C-32.09 -442.54, -37.96 -442.4, -47.2 -442.17 M-47.2 -442.17 C-53.77 -441.81, -60.34 -441.44, -66.65 -441.09 M-47.2 -442.17 C-54.27 -441.78, -61.34 -441.38, -66.65 -441.09 M-66.65 -441.09 C-71.32 -439.45, -75.99 -437.81, -82.76 -435.44 M-66.65 -441.09 C-70.05 -439.9, -73.45 -438.71, -82.76 -435.44 M-82.76 -435.44 C-83.34 -434.16, -83.92 -432.87, -84.62 -431.33 M-82.76 -435.44 C-83.44 -433.93, -84.13 -432.43, -84.62 -431.33 M-84.62 -431.33 C-83.87 -428.71, -83.11 -426.09, -82.45 -423.77 M-84.62 -431.33 C-84.07 -429.42, -83.52 -427.5, -82.45 -423.77 M-82.45 -423.77 C-81.33 -422.27, -80.22 -420.77, -77.2 -416.7 M-82.45 -423.77 C-80.58 -421.26, -78.71 -418.75, -77.2 -416.7 M-77.2 -416.7 C-76.16 -415.55, -75.12 -414.4, -72.51 -411.51 M-77.2 -416.7 C-76.22 -415.62, -75.24 -414.53, -72.51 -411.51 M-72.51 -411.51 C-70.98 -410.02, -69.45 -408.54, -68.61 -407.73 M-72.51 -411.51 C-71 -410.04, -69.48 -408.57, -68.61 -407.73 M-68.61 -407.73 C-67.67 -406.96, -66.72 -406.2, -65 -404.8 M-68.61 -407.73 C-67.54 -406.86, -66.47 -405.99, -65 -404.8 M-65 -404.8 C-62.63 -403.72, -60.25 -402.64, -56.9 -401.12 M-65 -404.8 C-62.2 -403.52, -59.4 -402.25, -56.9 -401.12 M-56.9 -401.12 C-54.61 -400.23, -52.31 -399.34, -49.14 -398.11 M-56.9 -401.12 C-54.16 -400.05, -51.42 -398.99, -49.14 -398.11 M-49.14 -398.11 C-47.34 -397.6, -45.53 -397.1, -41.38 -395.94 M-49.14 -398.11 C-46.63 -397.41, -44.12 -396.71, -41.38 -395.94 M-41.38 -395.94 C-38.93 -395.5, -36.47 -395.05, -30.91 -394.04 M-41.38 -395.94 C-38.89 -395.49, -36.41 -395.04, -30.91 -394.04 M-30.91 -394.04 C-29.34 -394.05, -27.77 -394.05, -23.51 -394.06 M-30.91 -394.04 C-29.14 -394.05, -27.37 -394.05, -23.51 -394.06 M-23.51 -394.06 C-20.98 -393.94, -18.45 -393.81, -14.11 -393.59 M-23.51 -394.06 C-21.4 -393.96, -19.29 -393.85, -14.11 -393.59 M-14.11 -393.59 C-12.86 -394.7, -11.62 -395.8, -10.14 -397.11 M-14.11 -393.59 C-13.21 -394.39, -12.3 -395.19, -10.14 -397.11 M-10.14 -397.11 C-9.38 -398.17, -8.61 -399.24, -7.33 -401.01 M-10.14 -397.11 C-9.56 -397.92, -8.97 -398.74, -7.33 -401.01 M-7.33 -401.01 C-5.97 -403.88, -4.61 -406.75, -2.82 -410.52 M-7.33 -401.01 C-6.24 -403.31, -5.15 -405.62, -2.82 -410.52 M-2.82 -410.52 C-1.13 -415.03, 0.56 -419.54, 1.41 -421.81 M-2.82 -410.52 C-1.54 -413.94, -0.25 -417.37, 1.41 -421.81 M1.41 -421.81 C1.51 -418.71, 1.62 -415.6, 1.88 -407.7 M1.41 -421.81 C1.53 -418.2, 1.65 -414.59, 1.88 -407.7 M1.88 -407.7 C1.75 -405.63, 1.62 -403.56, 1.43 -400.41 M1.88 -407.7 C1.77 -405.95, 1.66 -404.2, 1.43 -400.41 M1.43 -400.41 C0.5 -397.54, -0.44 -394.67, -0.94 -393.12 M1.43 -400.41 C0.81 -398.52, 0.2 -396.62, -0.94 -393.12 M-0.94 -393.12 C-2.2 -390.95, -3.46 -388.77, -6.11 -384.19 M-0.94 -393.12 C-2.85 -389.82, -4.77 -386.51, -6.11 -384.19 M-6.11 -384.19 C-1.32 -382.66, 3.46 -381.14, 14.58 -377.6 M-6.11 -384.19 C-0.65 -382.45, 4.81 -380.71, 14.58 -377.6 M14.58 -377.6 C16.65 -376.44, 18.71 -375.28, 22.1 -373.37 M14.58 -377.6 C16.55 -376.49, 18.52 -375.39, 22.1 -373.37 M22.1 -373.37 C18.57 -373.32, 15.05 -373.26, 6.11 -373.13 M22.1 -373.37 C17.35 -373.3, 12.59 -373.23, 6.11 -373.13 M6.11 -373.13 C2.6 -373.43, -0.92 -373.74, -7.52 -374.31 M6.11 -373.13 C1.96 -373.49, -2.2 -373.85, -7.52 -374.31 M-7.52 -374.31 C-10.33 -374.47, -13.13 -374.62, -15.99 -374.78 M-7.52 -374.31 C-9.28 -374.41, -11.04 -374.51, -15.99 -374.78 M-15.99 -374.78 C-12.84 -371.97, -9.69 -369.15, -7.05 -366.79 M-15.99 -374.78 C-13.26 -372.34, -10.54 -369.91, -7.05 -366.79 M-7.05 -366.79 C-4.54 -364.98, -2.03 -363.17, 4.7 -358.32 M-7.05 -366.79 C-3.99 -364.58, -0.93 -362.38, 4.7 -358.32 M4.7 -358.32 C9.65 -354.12, 14.61 -349.92, 17.08 -347.82 M4.7 -358.32 C8.27 -355.29, 11.85 -352.27, 17.08 -347.82 M17.08 -347.82 C15.73 -347.98, 14.39 -348.14, 10.37 -348.6 M17.08 -347.82 C14.79 -348.09, 12.49 -348.36, 10.37 -348.6 M10.37 -348.6 C7.57 -349.6, 4.78 -350.59, 1.73 -351.68 M10.37 -348.6 C7.78 -349.52, 5.19 -350.45, 1.73 -351.68 M1.73 -351.68 C11.17 -341.34, 20.61 -331, 32.64 -317.83 M1.73 -351.68 C12.7 -339.67, 23.66 -327.67, 32.64 -317.83 M32.64 -317.83 C26.44 -321.86, 20.24 -325.89, 13.66 -330.16 M32.64 -317.83 C28.82 -320.32, 25 -322.8, 13.66 -330.16 M13.66 -330.16 C5.35 -335.08, -2.97 -340, -23.7 -352.27 M13.66 -330.16 C5.36 -335.07, -2.95 -339.99, -23.7 -352.27 M-23.7 -352.27 C-29.71 -355.27, -35.72 -358.28, -44.05 -362.44 M-23.7 -352.27 C-29.32 -355.08, -34.94 -357.89, -44.05 -362.44 M-44.05 -362.44 C-48.35 -362.19, -52.64 -361.93, -57.16 -361.66 M-44.05 -362.44 C-47.79 -362.22, -51.54 -362, -57.16 -361.66 M-57.16 -361.66 C-59.87 -360.65, -62.57 -359.65, -64.01 -359.12 M-57.16 -361.66 C-58.69 -361.09, -60.23 -360.52, -64.01 -359.12 M-64.01 -359.12 C-67.82 -359.12, -71.63 -359.12, -77.7 -359.12 M-64.01 -359.12 C-68.18 -359.12, -72.35 -359.12, -77.7 -359.12 M-77.7 -359.12 C-81.41 -357.13, -85.12 -355.14, -91.2 -351.88 M-77.7 -359.12 C-82.63 -356.47, -87.56 -353.83, -91.2 -351.88 M-91.2 -351.88 C-95.03 -349.92, -98.86 -347.97, -109.2 -342.68 M-91.2 -351.88 C-95.85 -349.5, -100.49 -347.13, -109.2 -342.68 M-109.2 -342.68 C-110.2 -341.09, -111.2 -339.49, -113.01 -336.61 M-109.2 -342.68 C-110.1 -341.24, -111.01 -339.8, -113.01 -336.61 M-113.01 -336.61 C-114.07 -334.35, -115.14 -332.09, -116.05 -330.16 M-113.01 -336.61 C-114.05 -334.39, -115.1 -332.17, -116.05 -330.16 M-116.05 -330.16 C-116.91 -328.32, -117.77 -326.48, -118.39 -325.17 M-116.05 -330.16 C-116.98 -328.18, -117.9 -326.2, -118.39 -325.17 M-118.39 -325.17 C-119.3 -322.61, -120.22 -320.05, -120.72 -318.65 M-118.39 -325.17 C-119.27 -322.7, -120.15 -320.24, -120.72 -318.65 M-120.72 -318.65 C-121.57 -315.73, -122.41 -312.82, -123.68 -308.44 M-120.72 -318.65 C-121.37 -316.4, -122.03 -314.15, -123.68 -308.44 M-123.68 -308.44 C-123.62 -313.78, -123.55 -319.11, -123.48 -325.07 M-123.68 -308.44 C-123.6 -315.03, -123.52 -321.62, -123.48 -325.07 M-123.48 -325.07 C-123.18 -332.24, -122.88 -339.4, -122.7 -343.66 M-123.48 -325.07 C-123.25 -330.69, -123.01 -336.31, -122.7 -343.66 M-122.7 -343.66 C-126.6 -345.53, -130.5 -347.4, -132.48 -348.36 M-122.7 -343.66 C-125.16 -344.84, -127.62 -346.02, -132.48 -348.36 M-132.48 -348.36 C-138.27 -342.65, -144.07 -336.95, -150.48 -330.62 M-132.48 -348.36 C-137.08 -343.83, -141.68 -339.3, -150.48 -330.62 M-150.48 -330.62 C-157.61 -324.24, -164.74 -317.86, -169.7 -313.42 M-150.48 -330.62 C-154.64 -326.9, -158.79 -323.18, -169.7 -313.42 M-169.7 -313.42 C-172.53 -311.52, -175.36 -309.63, -181.98 -305.19 M-169.7 -313.42 C-173.53 -310.85, -177.35 -308.29, -181.98 -305.19 M-181.98 -305.19 C-180.02 -309.11, -178.06 -313.03, -174.55 -320.06 M-181.98 -305.19 C-179.14 -310.88, -176.29 -316.57, -174.55 -320.06 M-174.55 -320.06 C-171.09 -324.48, -167.63 -328.9, -163.98 -333.56 M-174.55 -320.06 C-171.15 -324.4, -167.75 -328.74, -163.98 -333.56 M-163.98 -333.56 C-162.93 -337.01, -161.88 -340.46, -161.24 -342.56 M-163.98 -333.56 C-163.27 -335.9, -162.56 -338.24, -161.24 -342.56 M-161.24 -342.56 C-167.64 -344.57, -174.04 -346.58, -181.81 -349.01 M-161.24 -342.56 C-168.55 -344.85, -175.85 -347.14, -181.81 -349.01 M-181.81 -349.01 C-183.2 -352.87, -184.59 -356.73, -186.16 -361.09 M-181.81 -349.01 C-183.45 -353.57, -185.1 -358.13, -186.16 -361.09 M-186.16 -361.09 C-189.8 -366.82, -193.44 -372.54, -196.26 -376.99 M-186.16 -361.09 C-189.19 -365.86, -192.22 -370.63, -196.26 -376.99 M-196.26 -376.99 C-198.86 -377.51, -201.45 -378.03, -203.88 -378.52 M-196.26 -376.99 C-198.42 -377.42, -200.58 -377.86, -203.88 -378.52 M-203.88 -378.52 C-208.15 -380.76, -212.41 -383, -216.61 -385.21 M-203.88 -378.52 C-207.24 -380.28, -210.59 -382.04, -216.61 -385.21 M-216.61 -385.21 C-211.63 -385.75, -206.65 -386.3, -204.09 -386.58 M-216.61 -385.21 C-212.33 -385.68, -208.04 -386.15, -204.09 -386.58 M-204.09 -386.58 C-211.24 -391.89, -218.39 -397.19, -223.07 -400.67 M-204.09 -386.58 C-211.13 -391.8, -218.17 -397.03, -223.07 -400.67 M-223.07 -400.67 C-217.49 -400.22, -211.92 -399.78, -205.85 -399.3 M-223.07 -400.67 C-217.21 -400.2, -211.35 -399.73, -205.85 -399.3 M-205.85 -399.3 C-205.43 -404.85, -205.01 -410.41, -204.48 -417.3 M-205.85 -399.3 C-205.35 -405.9, -204.85 -412.51, -204.48 -417.3 M-204.48 -417.3 C-202.35 -421.59, -200.23 -425.89, -195.29 -435.88 M-204.48 -417.3 C-201.89 -422.53, -199.31 -427.76, -195.29 -435.88 M-195.29 -435.88 C-195.97 -431.2, -196.66 -426.53, -198.22 -415.93 M-195.29 -435.88 C-195.92 -431.59, -196.55 -427.3, -198.22 -415.93 M-198.22 -415.93 C-191.82 -400.29, -185.42 -384.65, -177.92 -366.32 M-198.22 -415.93 C-190.35 -396.69, -182.48 -377.45, -177.92 -366.32 M-177.92 -366.32 C-176.75 -365.77, -175.58 -365.22, -174.47 -364.7 M-177.92 -366.32 C-176.9 -365.84, -175.88 -365.36, -174.47 -364.7 M-174.47 -364.7 C-166.52 -365.48, -158.57 -366.26, -142.85 -367.8 M-174.47 -364.7 C-164.96 -365.63, -155.44 -366.56, -142.85 -367.8 M-142.85 -367.8 C-142.13 -369.06, -141.4 -370.33, -140.35 -372.17 M-142.85 -367.8 C-142.32 -368.73, -141.79 -369.65, -140.35 -372.17 M-140.35 -372.17 C-139.56 -374.01, -138.76 -375.84, -138.35 -376.8 M-140.35 -372.17 C-139.79 -373.47, -139.23 -374.77, -138.35 -376.8 M-138.35 -376.8 C-140.37 -392.96, -142.38 -409.12, -146.96 -445.89 M-138.35 -376.8 C-141.64 -403.2, -144.93 -429.61, -146.96 -445.89 M-146.96 -445.89 C-152.23 -451.09, -157.51 -456.29, -160.46 -459.2 M-146.96 -445.89 C-149.75 -448.64, -152.53 -451.38, -160.46 -459.2 M-160.46 -459.2 C-168.34 -457.51, -176.22 -455.83, -199.79 -450.79 M-160.46 -459.2 C-170.05 -457.15, -179.64 -455.1, -199.79 -450.79 M-199.79 -450.79 C-206.11 -439.71, -212.44 -428.64, -217.79 -419.29 M-199.79 -450.79 C-206.53 -438.98, -213.27 -427.18, -217.79 -419.29 M-217.79 -419.29 C-220.72 -414.19, -223.65 -409.09, -227.57 -402.27 M-217.79 -419.29 C-220.27 -414.96, -222.76 -410.62, -227.57 -402.27 M-227.57 -402.27 C-227.79 -399.68, -228.01 -397.1, -228.35 -393.07 M-227.57 -402.27 C-227.8 -399.48, -228.04 -396.7, -228.35 -393.07 M-228.35 -393.07 C-228.03 -388.08, -227.72 -383.09, -227.37 -377.61 M-228.35 -393.07 C-228.07 -388.59, -227.78 -384.11, -227.37 -377.61 M-227.37 -377.61 C-225.74 -373.34, -224.11 -369.06, -221.11 -361.18 M-227.37 -377.61 C-225.34 -372.27, -223.3 -366.93, -221.11 -361.18 M-221.11 -361.18 C-220.84 -342.96, -220.57 -324.75, -220.33 -308.12 M-221.11 -361.18 C-220.92 -348.24, -220.73 -335.3, -220.33 -308.12 M-220.33 -308.12 C-220.18 -304.95, -220.03 -301.77, -219.74 -295.6 M-220.33 -308.12 C-220.1 -303.17, -219.86 -298.22, -219.74 -295.6 M-219.74 -295.6 C-217.59 -289.32, -215.43 -283.04, -212.89 -275.65 M-219.74 -295.6 C-218.16 -291, -216.59 -286.41, -212.89 -275.65 M-212.89 -275.65 C-207.52 -263.16, -202.14 -250.67, -195.29 -234.76 M-212.89 -275.65 C-207.84 -263.9, -202.78 -252.16, -195.29 -234.76 M-195.29 -234.76 C-195.13 -230.82, -194.97 -226.88, -194.7 -220.28 M-195.29 -234.76 C-195.06 -229.24, -194.84 -223.72, -194.7 -220.28 M-194.7 -220.28 C-194.57 -216.94, -194.43 -213.6, -194.31 -210.5 M-194.7 -220.28 C-194.55 -216.46, -194.39 -212.63, -194.31 -210.5 M-194.31 -210.5 C-193.53 -209.13, -192.75 -207.77, -191.96 -206.39 M-194.31 -210.5 C-193.73 -209.48, -193.15 -208.47, -191.96 -206.39 M-191.96 -206.39 C-190.44 -205.09, -188.93 -203.79, -187.85 -202.87 M-191.96 -206.39 C-190.66 -205.27, -189.36 -204.16, -187.85 -202.87 M-187.85 -202.87 C-186.65 -201.72, -185.44 -200.57, -183.74 -198.95 M-187.85 -202.87 C-186.22 -201.32, -184.6 -199.77, -183.74 -198.95 M-183.74 -198.95 C-186.01 -144.28, -188.29 -89.61, -191.96 -1.16 M-183.74 -198.95 C-186.16 -140.89, -188.57 -82.82, -191.96 -1.16 M-191.96 -1.16 C-147.23 -0.97, -102.5 -0.79, -0.23 -0.37 M-191.96 -1.16 C-150.09 -0.99, -108.21 -0.82, -0.23 -0.37 M-0.23 -0.37 C-0.17 -0.29, -0.12 -0.2, 0 0 M-0.23 -0.37 C-0.14 -0.24, -0.06 -0.1, 0 0" stroke="transparent" stroke-width="0.5" fill="none"/></g></g><g stroke-linecap="round"><g transform="translate(81.9411690567315 43.512383502383955) rotate(0 38.35467122683127 44.587300813459294)" fill-rule="evenodd"><path d="M0 0 L5.94 -9.59 L39.7 -18.22 L67.5 -1.92 L72.87 21.29 L68.75 21.77 L64.63 23.4 L60.12 27.81 L57.15 33.75 L56.76 39.22 L57.72 46.03 L59.16 52.07 L62.52 58.11 L64.72 62.04 L68.08 65.59 L74.02 72.49 L75.37 86.87 L76.71 91.48 L65.78 104.32 L39.31 107.39 L28.38 99.91 L30.3 85.72 L28 67.89 L21.29 42.96 L16.3 18.6 L0 0" stroke="none" stroke-width="0" fill="#006666" fill-rule="evenodd"/><path d="M0 0 C1.72 -2.78, 3.45 -5.56, 5.94 -9.59 M0 0 C1.35 -2.17, 2.69 -4.35, 5.94 -9.59 M5.94 -9.59 C12.8 -11.34, 19.66 -13.1, 39.7 -18.22 M5.94 -9.59 C13.1 -11.42, 20.26 -13.25, 39.7 -18.22 M39.7 -18.22 C46.43 -14.27, 53.16 -10.33, 67.5 -1.92 M39.7 -18.22 C49.05 -12.74, 58.4 -7.26, 67.5 -1.92 M67.5 -1.92 C69.36 6.11, 71.22 14.13, 72.87 21.29 M67.5 -1.92 C69.57 7, 71.63 15.91, 72.87 21.29 M72.87 21.29 C72.01 21.39, 71.15 21.49, 68.75 21.77 M72.87 21.29 C71.52 21.44, 70.16 21.6, 68.75 21.77 M68.75 21.77 C67.54 22.25, 66.33 22.72, 64.63 23.4 M68.75 21.77 C67.43 22.29, 66.11 22.81, 64.63 23.4 M64.63 23.4 C63.54 24.46, 62.45 25.53, 60.12 27.81 M64.63 23.4 C63.41 24.59, 62.19 25.78, 60.12 27.81 M60.12 27.81 C59.26 29.52, 58.41 31.24, 57.15 33.75 M60.12 27.81 C59.39 29.27, 58.66 30.72, 57.15 33.75 M57.15 33.75 C57.04 35.24, 56.94 36.74, 56.76 39.22 M57.15 33.75 C57.05 35.1, 56.96 36.45, 56.76 39.22 M56.76 39.22 C57.01 40.94, 57.25 42.66, 57.72 46.03 M56.76 39.22 C56.96 40.61, 57.16 42, 57.72 46.03 M57.72 46.03 C58.18 47.93, 58.63 49.84, 59.16 52.07 M57.72 46.03 C58.24 48.21, 58.76 50.39, 59.16 52.07 M59.16 52.07 C60.47 54.43, 61.79 56.79, 62.52 58.11 M59.16 52.07 C60.04 53.64, 60.91 55.22, 62.52 58.11 M62.52 58.11 C63.1 59.15, 63.68 60.18, 64.72 62.04 M62.52 58.11 C63.26 59.43, 64 60.75, 64.72 62.04 M64.72 62.04 C66.02 63.41, 67.33 64.79, 68.08 65.59 M64.72 62.04 C65.72 63.09, 66.71 64.14, 68.08 65.59 M68.08 65.59 C69.83 67.62, 71.58 69.66, 74.02 72.49 M68.08 65.59 C69.94 67.75, 71.8 69.91, 74.02 72.49 M74.02 72.49 C74.31 75.51, 74.59 78.53, 75.37 86.87 M74.02 72.49 C74.31 75.53, 74.59 78.56, 75.37 86.87 M75.37 86.87 C75.72 88.09, 76.08 89.31, 76.71 91.48 M75.37 86.87 C75.71 88.03, 76.04 89.2, 76.71 91.48 M76.71 91.48 C73.37 95.4, 70.03 99.33, 65.78 104.32 M76.71 91.48 C73.15 95.65, 69.6 99.83, 65.78 104.32 M65.78 104.32 C57.54 105.28, 49.29 106.24, 39.31 107.39 M65.78 104.32 C56.99 105.34, 48.2 106.36, 39.31 107.39 M39.31 107.39 C37.09 105.87, 34.88 104.36, 28.38 99.91 M39.31 107.39 C35.2 104.58, 31.08 101.76, 28.38 99.91 M28.38 99.91 C28.87 96.29, 29.36 92.66, 30.3 85.72 M28.38 99.91 C29.05 94.94, 29.73 89.97, 30.3 85.72 M30.3 85.72 C29.58 80.14, 28.86 74.56, 28 67.89 M30.3 85.72 C29.56 79.98, 28.82 74.23, 28 67.89 M28 67.89 C25.33 57.97, 22.66 48.05, 21.29 42.96 M28 67.89 C25.83 59.82, 23.66 51.76, 21.29 42.96 M21.29 42.96 C19.66 35, 18.03 27.04, 16.3 18.6 M21.29 42.96 C19.6 34.73, 17.92 26.51, 16.3 18.6 M16.3 18.6 C11.08 12.65, 5.86 6.69, 0 0 M16.3 18.6 C11.63 13.28, 6.96 7.95, 0 0 M0 0 C0 0, 0 0, 0 0 M0 0 C0 0, 0 0, 0 0" stroke="transparent" stroke-width="0.5" fill="none"/></g></g><g stroke-linecap="round"><g transform="translate(166.32140472506728 61.73085105291965) rotate(0 11.410533153794177 -25.314078393755665)" fill-rule="evenodd"><path d="M0 0 L-18.22 -38.55 L-12.47 -46.22 L19.94 -50.63 L40.08 -38.35 L41.04 -9.4 L37.01 -4.6 L31.07 -2.49 L0 0" stroke="none" stroke-width="0" fill="#006666" fill-rule="evenodd"/><path d="M0 0 C-6.86 -14.52, -13.73 -29.04, -18.22 -38.55 M0 0 C-6.71 -14.19, -13.41 -28.38, -18.22 -38.55 M-18.22 -38.55 C-16.85 -40.36, -15.49 -42.18, -12.47 -46.22 M-18.22 -38.55 C-16.29 -41.12, -14.36 -43.69, -12.47 -46.22 M-12.47 -46.22 C-4.09 -47.36, 4.28 -48.5, 19.94 -50.63 M-12.47 -46.22 C-5.89 -47.11, 0.68 -48.01, 19.94 -50.63 M19.94 -50.63 C27.9 -45.78, 35.85 -40.93, 40.08 -38.35 M19.94 -50.63 C27.43 -46.06, 34.92 -41.5, 40.08 -38.35 M40.08 -38.35 C40.46 -26.93, 40.84 -15.51, 41.04 -9.4 M40.08 -38.35 C40.46 -26.94, 40.84 -15.52, 41.04 -9.4 M41.04 -9.4 C40.2 -8.4, 39.36 -7.39, 37.01 -4.6 M41.04 -9.4 C39.59 -7.67, 38.14 -5.94, 37.01 -4.6 M37.01 -4.6 C35.77 -4.16, 34.54 -3.72, 31.07 -2.49 M37.01 -4.6 C35.31 -4, 33.6 -3.39, 31.07 -2.49 M31.07 -2.49 C18.89 -1.52, 6.71 -0.54, 0 0 M31.07 -2.49 C21.63 -1.74, 12.19 -0.98, 0 0 M0 0 C0 0, 0 0, 0 0 M0 0 C0 0, 0 0, 0 0" stroke="transparent" stroke-width="0.5" fill="none"/></g></g><g stroke-linecap="round"><g transform="translate(222.7027570677667 46.197214078447786) rotate(0 29.14953782318389 -8.893489663190948)" fill-rule="evenodd"><path d="M0 0 L4.99 -3.64 L11.7 -4.41 L17.07 -3.26 L22.25 -1.34 L29.34 0.38 L36.05 4.41 L43.53 10.36 L50.05 18.41 L52.16 9.21 L58.3 -4.03 L47.37 -20.14 L40.27 -28.19 L24.16 -32.7 L9.97 -34.9 L5.13 -36.2 L2.78 -32.51 L1.92 -20.33 L0 0" stroke="none" stroke-width="0" fill="#006666" fill-rule="evenodd"/><path d="M0 0 C1.98 -1.45, 3.96 -2.89, 4.99 -3.64 M0 0 C1.34 -0.98, 2.67 -1.95, 4.99 -3.64 M4.99 -3.64 C7.41 -3.92, 9.84 -4.2, 11.7 -4.41 M4.99 -3.64 C7.17 -3.89, 9.35 -4.14, 11.7 -4.41 M11.7 -4.41 C12.87 -4.16, 14.05 -3.91, 17.07 -3.26 M11.7 -4.41 C13.01 -4.13, 14.31 -3.85, 17.07 -3.26 M17.07 -3.26 C18.36 -2.78, 19.65 -2.3, 22.25 -1.34 M17.07 -3.26 C18.76 -2.63, 20.44 -2.01, 22.25 -1.34 M22.25 -1.34 C24.85 -0.71, 27.46 -0.07, 29.34 0.38 M22.25 -1.34 C25.02 -0.67, 27.8 0.01, 29.34 0.38 M29.34 0.38 C31.54 1.7, 33.73 3.02, 36.05 4.41 M29.34 0.38 C31.74 1.83, 34.15 3.27, 36.05 4.41 M36.05 4.41 C38.58 6.42, 41.11 8.43, 43.53 10.36 M36.05 4.41 C37.8 5.8, 39.56 7.19, 43.53 10.36 M43.53 10.36 C45.35 12.6, 47.16 14.84, 50.05 18.41 M43.53 10.36 C45.51 12.8, 47.49 15.24, 50.05 18.41 M50.05 18.41 C50.7 15.59, 51.34 12.77, 52.16 9.21 M50.05 18.41 C50.71 15.53, 51.38 12.64, 52.16 9.21 M52.16 9.21 C53.83 5.62, 55.49 2.03, 58.3 -4.03 M52.16 9.21 C53.78 5.73, 55.39 2.25, 58.3 -4.03 M58.3 -4.03 C54.7 -9.33, 51.11 -14.62, 47.37 -20.14 M58.3 -4.03 C54.05 -10.3, 49.79 -16.56, 47.37 -20.14 M47.37 -20.14 C44.87 -22.98, 42.37 -25.81, 40.27 -28.19 M47.37 -20.14 C44.84 -23, 42.32 -25.87, 40.27 -28.19 M40.27 -28.19 C34.72 -29.74, 29.16 -31.3, 24.16 -32.7 M40.27 -28.19 C36.41 -29.27, 32.54 -30.35, 24.16 -32.7 M24.16 -32.7 C20.59 -33.25, 17.02 -33.81, 9.97 -34.9 M24.16 -32.7 C19.62 -33.4, 15.07 -34.11, 9.97 -34.9 M9.97 -34.9 C8.16 -35.39, 6.36 -35.87, 5.13 -36.2 M9.97 -34.9 C8.69 -35.24, 7.42 -35.59, 5.13 -36.2 M5.13 -36.2 C4.24 -34.8, 3.35 -33.4, 2.78 -32.51 M5.13 -36.2 C4.39 -35.04, 3.66 -33.88, 2.78 -32.51 M2.78 -32.51 C2.51 -28.66, 2.24 -24.82, 1.92 -20.33 M2.78 -32.51 C2.54 -29.14, 2.3 -25.77, 1.92 -20.33 M1.92 -20.33 C1.49 -15.75, 1.05 -11.16, 0 0 M1.92 -20.33 C1.32 -14, 0.72 -7.68, 0 0 M0 0 C0 0, 0 0, 0 0 M0 0 C0 0, 0 0, 0 0" stroke="transparent" stroke-width="0.5" fill="none"/></g></g><g stroke-linecap="round"><g transform="translate(46.27134122805569 271.6360214030048) rotate(0 -3.5478214492244433 -34.99862980122859)" fill-rule="evenodd"><path d="M0 0 L12.85 -0.58 L2.11 -26.66 L-9.21 -50.44 L-19.94 -70 L-17.45 -58.49 L0 0" stroke="none" stroke-width="0" fill="#E6D2C1" fill-rule="evenodd"/><path d="M0 0 C4.85 -0.22, 9.7 -0.43, 12.85 -0.58 M0 0 C4.15 -0.19, 8.3 -0.37, 12.85 -0.58 M12.85 -0.58 C10.25 -6.88, 7.66 -13.18, 2.11 -26.66 M12.85 -0.58 C10.45 -6.41, 8.05 -12.24, 2.11 -26.66 M2.11 -26.66 C-1.98 -35.26, -6.08 -43.87, -9.21 -50.44 M2.11 -26.66 C-0.21 -31.54, -2.53 -36.42, -9.21 -50.44 M-9.21 -50.44 C-12 -55.54, -14.8 -60.63, -19.94 -70 M-9.21 -50.44 C-13.1 -57.54, -17 -64.64, -19.94 -70 M-19.94 -70 C-19.13 -66.22, -18.31 -62.44, -17.45 -58.49 M-19.94 -70 C-19.28 -66.91, -18.61 -63.83, -17.45 -58.49 M-17.45 -58.49 C-13.35 -44.74, -9.25 -31, 0 0 M-17.45 -58.49 C-11.24 -37.67, -5.03 -16.86, 0 0 M0 0 C0 0, 0 0, 0 0 M0 0 C0 0, 0 0, 0 0" stroke="#E6D2C1" stroke-width="0.5" fill="none"/></g></g><g stroke-linecap="round"><g transform="translate(48.95615898202777 287.3614319900527) rotate(0 65.97003297149882 -9.588667806707818)" fill-rule="evenodd"><path d="M0 0 L10.55 -0.38 L16.88 -1.92 L19.94 16.88 L26.08 16.88 L24.07 7.58 L21.67 -3.45 L43.92 -5.56 L68.46 -9.4 L115.64 -9.78 L131.94 -9.97 L118.13 -16.3 L102.41 -18.79 L85.53 -20.14 L73.26 -21.86 L56 -23.2 L41.23 -20.52 L34.9 -14.57 L19.94 -13.04 L13.42 -36.05 L15.15 -11.89 L0.38 -10.93 L0 0" stroke="none" stroke-width="0" fill="#E6D2C1" fill-rule="evenodd"/><path d="M0 0 C3.24 -0.12, 6.48 -0.24, 10.55 -0.38 M0 0 C2.23 -0.08, 4.47 -0.16, 10.55 -0.38 M10.55 -0.38 C12.54 -0.87, 14.53 -1.35, 16.88 -1.92 M10.55 -0.38 C12.7 -0.91, 14.86 -1.43, 16.88 -1.92 M16.88 -1.92 C17.84 3.96, 18.8 9.84, 19.94 16.88 M16.88 -1.92 C17.78 3.59, 18.68 9.11, 19.94 16.88 M19.94 16.88 C22.26 16.88, 24.58 16.88, 26.08 16.88 M19.94 16.88 C21.44 16.88, 22.94 16.88, 26.08 16.88 M26.08 16.88 C25.5 14.19, 24.92 11.5, 24.07 7.58 M26.08 16.88 C25.67 14.96, 25.25 13.05, 24.07 7.58 M24.07 7.58 C23.24 3.77, 22.41 -0.03, 21.67 -3.45 M24.07 7.58 C23.55 5.19, 23.03 2.81, 21.67 -3.45 M21.67 -3.45 C29.98 -4.24, 38.29 -5.03, 43.92 -5.56 M21.67 -3.45 C28.96 -4.14, 36.25 -4.83, 43.92 -5.56 M43.92 -5.56 C52.4 -6.89, 60.88 -8.21, 68.46 -9.4 M43.92 -5.56 C53.59 -7.07, 63.25 -8.58, 68.46 -9.4 M68.46 -9.4 C86.7 -9.55, 104.94 -9.69, 115.64 -9.78 M68.46 -9.4 C80.58 -9.5, 92.7 -9.59, 115.64 -9.78 M115.64 -9.78 C122 -9.86, 128.35 -9.93, 131.94 -9.97 M115.64 -9.78 C121.1 -9.84, 126.55 -9.91, 131.94 -9.97 M131.94 -9.97 C128.78 -11.42, 125.62 -12.87, 118.13 -16.3 M131.94 -9.97 C129.05 -11.3, 126.16 -12.62, 118.13 -16.3 M118.13 -16.3 C112.32 -17.22, 106.51 -18.14, 102.41 -18.79 M118.13 -16.3 C114.76 -16.83, 111.4 -17.37, 102.41 -18.79 M102.41 -18.79 C97.64 -19.17, 92.87 -19.55, 85.53 -20.14 M102.41 -18.79 C98.68 -19.09, 94.96 -19.39, 85.53 -20.14 M85.53 -20.14 C82.38 -20.58, 79.23 -21.02, 73.26 -21.86 M85.53 -20.14 C82.75 -20.53, 79.96 -20.92, 73.26 -21.86 M73.26 -21.86 C69.62 -22.15, 65.97 -22.43, 56 -23.2 M73.26 -21.86 C67.32 -22.32, 61.38 -22.79, 56 -23.2 M56 -23.2 C51.48 -22.38, 46.96 -21.56, 41.23 -20.52 M56 -23.2 C50.3 -22.17, 44.61 -21.13, 41.23 -20.52 M41.23 -20.52 C38.96 -18.39, 36.69 -16.25, 34.9 -14.57 M41.23 -20.52 C39.63 -19.02, 38.03 -17.52, 34.9 -14.57 M34.9 -14.57 C31.12 -14.19, 27.34 -13.8, 19.94 -13.04 M34.9 -14.57 C30.08 -14.08, 25.25 -13.58, 19.94 -13.04 M19.94 -13.04 C17.65 -21.14, 15.36 -29.23, 13.42 -36.05 M19.94 -13.04 C18.4 -18.5, 16.85 -23.96, 13.42 -36.05 M13.42 -36.05 C13.96 -28.5, 14.5 -20.94, 15.15 -11.89 M13.42 -36.05 C13.92 -29.08, 14.42 -22.1, 15.15 -11.89 M15.15 -11.89 C10.76 -11.6, 6.37 -11.32, 0.38 -10.93 M15.15 -11.89 C12.08 -11.69, 9 -11.49, 0.38 -10.93 M0.38 -10.93 C0.24 -6.73, 0.09 -2.53, 0 0 M0.38 -10.93 C0.25 -7.07, 0.11 -3.21, 0 0 M0 0 C0 0, 0 0, 0 0 M0 0 C0 0, 0 0, 0 0" stroke="#E6D2C1" stroke-width="0.5" fill="none"/></g></g><g stroke-linecap="round"><g transform="translate(129.50094804302705 215.44643626183563) rotate(0 29.724865071957595 26.944150895128686)" fill-rule="evenodd"><path d="M0 0 L4.99 36.44 L-7.1 34.52 L-6.33 38.74 L-2.78 41.42 L4.99 42.57 L66.55 53.89 L15.92 37.78 L0 0" stroke="none" stroke-width="0" fill="#E6D2C1" fill-rule="evenodd"/><path d="M0 0 C1.86 13.58, 3.72 27.16, 4.99 36.44 M0 0 C1.29 9.42, 2.58 18.85, 4.99 36.44 M4.99 36.44 C2.21 36, -0.56 35.56, -7.1 34.52 M4.99 36.44 C2.34 36.02, -0.3 35.6, -7.1 34.52 M-7.1 34.52 C-6.85 35.87, -6.6 37.22, -6.33 38.74 M-7.1 34.52 C-6.84 35.92, -6.59 37.32, -6.33 38.74 M-6.33 38.74 C-4.96 39.77, -3.59 40.81, -2.78 41.42 M-6.33 38.74 C-5.13 39.65, -3.92 40.56, -2.78 41.42 M-2.78 41.42 C-0.38 41.78, 2.03 42.14, 4.99 42.57 M-2.78 41.42 C0.17 41.86, 3.11 42.3, 4.99 42.57 M4.99 42.57 C25.23 46.3, 45.48 50.02, 66.55 53.89 M4.99 42.57 C28.58 46.91, 52.17 51.25, 66.55 53.89 M66.55 53.89 C53.89 49.86, 41.23 45.83, 15.92 37.78 M66.55 53.89 C53.56 49.76, 40.58 45.63, 15.92 37.78 M15.92 37.78 C11.8 28, 7.68 18.23, 0 0 M15.92 37.78 C11.65 27.64, 7.38 17.51, 0 0 M0 0 C0 0, 0 0, 0 0 M0 0 C0 0, 0 0, 0 0" stroke="#E6D2C1" stroke-width="0.5" fill="none"/></g></g><g stroke-linecap="round"><g transform="translate(117.8027640869376 314.3482676280199) rotate(0 2.1095161493816477 45.73793287234653)" fill-rule="evenodd"><path d="M0 0 L5.75 48.14 L6.9 73.26 L4.03 91.48 L-0.58 82.27 L-1.73 66.16 L-2.68 43.72 L-2.11 28.19 L-0.58 13.81 L-0.19 1.73" stroke="none" stroke-width="0" fill="#E6D2C1" fill-rule="evenodd"/><path d="M0 0 C2.29 19.14, 4.57 38.27, 5.75 48.14 M0 0 C2.27 19.01, 4.54 38.02, 5.75 48.14 M5.75 48.14 C6.08 55.29, 6.41 62.45, 6.9 73.26 M5.75 48.14 C6.21 58.11, 6.67 68.09, 6.9 73.26 M6.9 73.26 C6.06 78.63, 5.21 84.01, 4.03 91.48 M6.9 73.26 C5.96 79.26, 5.01 85.26, 4.03 91.48 M4.03 91.48 C2.43 88.29, 0.84 85.1, -0.58 82.27 M4.03 91.48 C2.25 87.93, 0.48 84.38, -0.58 82.27 M-0.58 82.27 C-0.96 76.84, -1.35 71.4, -1.73 66.16 M-0.58 82.27 C-0.95 77.08, -1.32 71.9, -1.73 66.16 M-1.73 66.16 C-2.07 58.11, -2.41 50.06, -2.68 43.72 M-1.73 66.16 C-1.96 60.62, -2.2 55.08, -2.68 43.72 M-2.68 43.72 C-2.51 38.96, -2.33 34.19, -2.11 28.19 M-2.68 43.72 C-2.57 40.5, -2.45 37.28, -2.11 28.19 M-2.11 28.19 C-1.66 23.95, -1.21 19.71, -0.58 13.81 M-2.11 28.19 C-1.53 22.78, -0.96 17.38, -0.58 13.81 M-0.58 13.81 C-0.47 10.59, -0.37 7.37, -0.19 1.73 M-0.58 13.81 C-0.48 10.92, -0.39 8.02, -0.19 1.73 M-0.19 1.73 C-0.15 1.37, -0.11 1.01, 0 0 M-0.19 1.73 C-0.12 1.06, -0.04 0.4, 0 0" stroke="#E6D2C1" stroke-width="0.5" fill="none"/></g></g><g stroke-linecap="round"><g transform="translate(152.1806716639593 506.74097872946044) rotate(0 -6.091334982815283 -105.49080241826854)" fill-rule="evenodd"><path d="M0 0 L0.72 -21.68 L-0.43 -56.77 L-8.49 -193.06 L-12.52 -211.47 L-12.9 -190.95 L-9.26 -116.73 L-7.15 -42.9 L-6.19 -12.79 L-3.94 0.48" stroke="none" stroke-width="0" fill="#E6D2C1" fill-rule="evenodd"/><path d="M0 0 C0.2 -6.05, 0.4 -12.11, 0.72 -21.68 M0 0 C0.23 -6.98, 0.46 -13.96, 0.72 -21.68 M0.72 -21.68 C0.41 -30.98, 0.11 -40.27, -0.43 -56.77 M0.72 -21.68 C0.29 -34.69, -0.14 -47.69, -0.43 -56.77 M-0.43 -56.77 C-2.41 -90.23, -4.39 -123.69, -8.49 -193.06 M-0.43 -56.77 C-2.34 -89.07, -4.25 -121.37, -8.49 -193.06 M-8.49 -193.06 C-9.41 -197.28, -10.34 -201.51, -12.52 -211.47 M-8.49 -193.06 C-9.52 -197.76, -10.55 -202.46, -12.52 -211.47 M-12.52 -211.47 C-12.61 -206.48, -12.7 -201.49, -12.9 -190.95 M-12.52 -211.47 C-12.63 -205.58, -12.74 -199.7, -12.9 -190.95 M-12.9 -190.95 C-11.65 -165.53, -10.4 -140.12, -9.26 -116.73 M-12.9 -190.95 C-11.79 -168.36, -10.68 -145.77, -9.26 -116.73 M-9.26 -116.73 C-8.78 -100.03, -8.3 -83.34, -7.15 -42.9 M-9.26 -116.73 C-8.45 -88.37, -7.64 -60.01, -7.15 -42.9 M-7.15 -42.9 C-6.91 -35.43, -6.67 -27.96, -6.19 -12.79 M-7.15 -42.9 C-6.87 -34.17, -6.59 -25.45, -6.19 -12.79 M-6.19 -12.79 C-5.67 -9.74, -5.15 -6.69, -3.94 0.48 M-6.19 -12.79 C-5.6 -9.32, -5.01 -5.85, -3.94 0.48 M-3.94 0.48 C-2.86 0.35, -1.79 0.22, 0 0 M-3.94 0.48 C-3.14 0.39, -2.34 0.29, 0 0" stroke="#E6D2C1" stroke-width="0.5" fill="none"/></g></g></svg>