<svg version="1.1" xmlns="http://www.w3.org/2000/svg" viewBox="0 0 335.5225907563754 309.371897282187" width="335.5225907563754" height="309.371897282187">
  <!-- svg-source:excalidraw -->
  
  <defs>
    <style>
      @font-face {
        font-family: "Virgil";
        src: url("https://unpkg.com/@zsviczian/excalidraw@0.12.0-obsidian-9/dist/excalidraw-assets/Virgil.woff2");
      }
      @font-face {
        font-family: "Cascadia";
        src: url("https://unpkg.com/@zsviczian/excalidraw@0.12.0-obsidian-9/dist/excalidraw-assets/Cascadia.woff2");
      }
    </style>
  </defs>
  <rect x="0" y="0" width="335.5225907563754" height="309.371897282187" fill="#FFF6F0"/><g stroke-linecap="round" transform="translate(157.17911329776825 202.02394711956646) rotate(0 27.874443936711202 33.55257140530054)"><path d="M16.29 4.25 C21.23 0.75, 28.31 -0.45, 33.95 1.08 C39.59 2.61, 46.5 7.85, 50.12 13.44 C53.74 19.04, 56.18 27.42, 55.68 34.63 C55.18 41.83, 51.19 51.26, 47.14 56.67 C43.08 62.08, 37.13 66.13, 31.36 67.1 C25.6 68.06, 17.43 66.56, 12.55 62.44 C7.67 58.32, 3.66 49.55, 2.06 42.38 C0.47 35.22, 0.15 26.34, 2.97 19.46 C5.78 12.58, 15.59 4.17, 18.94 1.11 C22.29 -1.96, 22.99 0.38, 23.07 1.05 M33.46 0.06 C38.69 1.19, 45.77 7.23, 49.34 13.45 C52.92 19.66, 55.03 30.07, 54.91 37.35 C54.79 44.64, 52.45 52.07, 48.62 57.15 C44.79 62.24, 38.05 67.38, 31.9 67.85 C25.75 68.31, 17.08 64, 11.73 59.97 C6.37 55.95, 1.11 50.37, -0.24 43.7 C-1.59 37.02, 1.02 26.52, 3.63 19.92 C6.23 13.32, 10.29 6.98, 15.38 4.09 C20.47 1.19, 30.87 3.15, 34.18 2.56 C37.49 1.98, 35.43 0.49, 35.25 0.58" stroke="none" stroke-width="0" fill="#E6D2C1"/><path d="M15.44 3.13 C20.14 -0.33, 27.63 -0.91, 33.34 0.88 C39.05 2.66, 45.79 8.34, 49.68 13.86 C53.57 19.37, 56.72 26.88, 56.67 33.95 C56.63 41.01, 53.73 50.95, 49.41 56.26 C45.1 61.57, 36.94 65, 30.77 65.81 C24.61 66.62, 17.43 64.67, 12.42 61.11 C7.41 57.54, 2.58 50.99, 0.72 44.4 C-1.14 37.81, -1.96 28.78, 1.26 21.56 C4.48 14.34, 15.73 4.62, 20.06 1.1 C24.39 -2.41, 26.97 -0.19, 27.25 0.47 M26.28 1 C31.75 0.69, 40.84 3.91, 45.75 8.42 C50.66 12.93, 54.48 21.05, 55.73 28.06 C56.97 35.06, 56 44.48, 53.22 50.45 C50.44 56.43, 44.84 61.51, 39.05 63.9 C33.27 66.28, 24.35 67.13, 18.53 64.74 C12.71 62.36, 7.1 55.93, 4.11 49.6 C1.13 43.26, -0.5 33.69, 0.63 26.73 C1.76 19.77, 6.45 12.38, 10.89 7.81 C15.33 3.25, 24.48 0.44, 27.28 -0.65 C30.08 -1.74, 27.57 0.62, 27.69 1.25" stroke="#000000" stroke-width="2" fill="none"/></g><g stroke-linecap="round" transform="translate(120.01318804881805 162.79324824567578) rotate(0 27.874443936711202 33.55257140530054)"><path d="M21.36 0.71 C26.67 -1.65, 34.5 -0.15, 39.77 2.95 C45.04 6.05, 50.62 12.94, 52.96 19.32 C55.3 25.7, 55.33 34.24, 53.82 41.25 C52.31 48.25, 48.59 57.06, 43.9 61.36 C39.21 65.66, 31.49 67.58, 25.69 67.05 C19.89 66.53, 13.49 63.21, 9.11 58.23 C4.74 53.25, 0.22 44.53, -0.57 37.17 C-1.37 29.8, 0.69 20.14, 4.32 14.03 C7.96 7.93, 18.12 2.8, 21.22 0.56 C24.32 -1.69, 22.68 -0.13, 22.92 0.54 M35.01 0.23 C40.36 1.92, 47 8.14, 50.61 14.52 C54.23 20.9, 57.3 31.02, 56.69 38.51 C56.08 46, 51.37 54.75, 46.96 59.46 C42.55 64.16, 36.41 66.77, 30.23 66.71 C24.05 66.66, 14.6 63.19, 9.88 59.1 C5.16 55.02, 3 49.1, 1.91 42.22 C0.82 35.34, 0.69 24.52, 3.33 17.82 C5.98 11.11, 12.11 4.62, 17.8 1.98 C23.5 -0.66, 34.69 2.14, 37.51 1.98 C40.32 1.82, 35.3 0.39, 34.71 1.02" stroke="none" stroke-width="0" fill="#E6D2C1"/><path d="M33.55 0.58 C39.27 1.62, 46.55 7.41, 50.4 13.39 C54.25 19.38, 57.17 29.15, 56.66 36.49 C56.15 43.83, 51.56 52.54, 47.34 57.44 C43.12 62.34, 37.29 65.33, 31.32 65.91 C25.36 66.48, 16.73 64.78, 11.55 60.88 C6.38 56.97, 1.72 49.39, 0.26 42.48 C-1.2 35.58, 0.16 26.09, 2.78 19.45 C5.4 12.8, 10.54 5.71, 15.98 2.62 C21.42 -0.47, 32.09 0.97, 35.43 0.91 C38.77 0.85, 36.03 1.68, 36.02 2.27 M41.13 3.61 C46.57 6.52, 51.79 13.69, 54.16 20.4 C56.53 27.12, 57.06 36.84, 55.35 43.9 C53.63 50.96, 49.12 58.94, 43.87 62.76 C38.62 66.58, 29.95 67.77, 23.86 66.82 C17.77 65.87, 11.48 62.17, 7.34 57.05 C3.2 51.93, -0.43 43.12, -0.98 36.1 C-1.54 29.09, 0.34 20.86, 3.99 14.96 C7.64 9.05, 14.98 2.6, 20.9 0.69 C26.81 -1.21, 36.22 2.91, 39.48 3.53 C42.74 4.15, 40.59 3.73, 40.46 4.44" stroke="#000000" stroke-width="2" fill="none"/></g><g stroke-linecap="round" transform="translate(110.72170673658479 113.2386812470782) rotate(0 27.874443936711202 33.55257140530054)"><path d="M35.7 1.66 C41.06 3.13, 47.85 9.39, 51.15 15.24 C54.45 21.1, 56.39 29.64, 55.51 36.8 C54.63 43.96, 50.17 53.12, 45.84 58.2 C41.52 63.28, 35.35 66.78, 29.55 67.27 C23.76 67.77, 15.73 65.68, 11.07 61.18 C6.41 56.68, 2.83 47.55, 1.61 40.27 C0.38 32.99, 1.21 23.85, 3.74 17.49 C6.27 11.12, 11.16 4.63, 16.79 2.07 C22.42 -0.5, 33.89 1.8, 37.51 2.11 C41.12 2.41, 38.5 3.26, 38.47 3.89 M30.45 -0.32 C36.23 0.55, 43.43 6.74, 47.79 12.18 C52.15 17.63, 56.03 25.22, 56.61 32.37 C57.18 39.51, 55.12 49.57, 51.25 55.04 C47.38 60.5, 39.67 63.57, 33.39 65.13 C27.12 66.7, 18.64 67.52, 13.6 64.41 C8.56 61.31, 5.29 53.22, 3.17 46.5 C1.04 39.78, -0.7 30.74, 0.83 24.09 C2.37 17.45, 7.13 10.78, 12.36 6.63 C17.58 2.48, 29.17 0.32, 32.2 -0.83 C35.23 -1.98, 30.49 -0.86, 30.52 -0.26" stroke="none" stroke-width="0" fill="#E6D2C1"/><path d="M19.65 1.51 C24.86 -0.54, 33.17 1.03, 38.85 3.75 C44.54 6.47, 50.95 11.51, 53.77 17.83 C56.6 24.15, 57.52 34.71, 55.8 41.67 C54.08 48.62, 48.51 55.49, 43.45 59.57 C38.4 63.65, 31.37 66.35, 25.46 66.14 C19.56 65.94, 12.36 63.06, 8.02 58.35 C3.68 53.65, 0.12 45.11, -0.6 37.9 C-1.31 30.68, -0.17 21.33, 3.72 15.07 C7.61 8.8, 18.98 2.56, 22.74 0.3 C26.5 -1.96, 26.14 0.75, 26.27 1.49 M24.84 1.03 C30.73 -0.24, 38.52 2.32, 43.65 6.22 C48.79 10.11, 53.77 17.79, 55.64 24.38 C57.5 30.98, 57.39 39.34, 54.83 45.79 C52.27 52.24, 45.81 59.86, 40.28 63.08 C34.75 66.31, 27.41 66.96, 21.66 65.15 C15.91 63.34, 9.18 57.86, 5.77 52.22 C2.36 46.58, 0.95 38.38, 1.21 31.32 C1.47 24.26, 3.39 14.95, 7.31 9.87 C11.24 4.78, 21.79 2.33, 24.76 0.8 C27.73 -0.73, 24.87 0.3, 25.13 0.69" stroke="#000000" stroke-width="2" fill="none"/></g><g stroke-linecap="round" transform="translate(123.11034848623046 55.425019748714526) rotate(0 27.874443936711202 33.55257140530054)"><path d="M39.42 2.76 C44.59 5.23, 50.37 12.56, 52.79 18.89 C55.21 25.23, 55.34 33.76, 53.91 40.79 C52.49 47.82, 48.86 56.7, 44.22 61.09 C39.58 65.47, 31.88 67.51, 26.08 67.09 C20.27 66.67, 13.83 63.47, 9.39 58.56 C4.95 53.65, 0.34 44.99, -0.54 37.64 C-1.42 30.28, 0.73 20.52, 4.1 14.42 C7.48 8.32, 13.22 2.62, 19.71 1.02 C26.2 -0.58, 38.59 3.37, 43.06 4.82 C47.54 6.28, 46.7 9.11, 46.56 9.74 M14.65 2.86 C19.91 -0.25, 29.42 -0.23, 35.36 1.75 C41.29 3.74, 46.71 9.25, 50.25 14.8 C53.79 20.35, 57.14 28.31, 56.6 35.05 C56.06 41.79, 51.03 49.76, 46.99 55.25 C42.96 60.74, 38.07 66.99, 32.4 67.98 C26.72 68.96, 18 65.37, 12.93 61.14 C7.87 56.91, 3.56 49.31, 2.02 42.6 C0.49 35.89, 1.71 27.56, 3.73 20.88 C5.75 14.2, 12.38 5.13, 14.14 2.53 C15.9 -0.07, 14.03 4.83, 14.3 5.28" stroke="none" stroke-width="0" fill="#E6D2C1"/><path d="M36.82 1.56 C42.61 3.52, 49.6 10.63, 52.58 16.92 C55.55 23.21, 55.66 32.5, 54.67 39.29 C53.68 46.08, 51.12 53.15, 46.62 57.67 C42.13 62.19, 33.84 66.16, 27.67 66.41 C21.51 66.66, 14.09 63.68, 9.66 59.2 C5.22 54.71, 2.01 46.61, 1.06 39.52 C0.1 32.43, 1.17 22.91, 3.94 16.66 C6.71 10.41, 11.87 4.33, 17.68 2.03 C23.49 -0.28, 34.8 2.39, 38.82 2.83 C42.83 3.27, 41.76 4.23, 41.76 4.7 M17.01 3.54 C21.96 0.43, 30.19 0.19, 35.9 2.24 C41.6 4.28, 48.11 10.08, 51.22 15.79 C54.33 21.5, 55.27 29.56, 54.57 36.53 C53.88 43.5, 51.28 52.49, 47.04 57.61 C42.8 62.73, 35.24 66.5, 29.13 67.25 C23.03 68, 15.18 66.36, 10.43 62.12 C5.68 57.87, 2.05 48.93, 0.65 41.8 C-0.76 34.67, -0.68 25.74, 2.01 19.35 C4.7 12.97, 14.41 5.89, 16.78 3.5 C19.15 1.11, 16.21 4.82, 16.24 5.02" stroke="#000000" stroke-width="2" fill="none"/></g><g stroke-linecap="round" transform="translate(155.11433967282505 9.999999999999993) rotate(0 27.874443936711202 33.55257140530053)"><path d="M37.72 2.08 C43.21 3.94, 49.49 10, 52.25 16.32 C55.01 22.64, 55.37 32.74, 54.28 39.99 C53.2 47.25, 50.22 55.18, 45.74 59.85 C41.27 64.53, 33.31 68.3, 27.43 68.02 C21.56 67.74, 14.89 63.16, 10.49 58.17 C6.08 53.18, 2.12 45.15, 0.99 38.07 C-0.15 31, 0.75 21.76, 3.68 15.7 C6.61 9.65, 11.82 3.16, 18.56 1.74 C25.31 0.33, 38.85 5.05, 44.16 7.22 C49.47 9.38, 50.56 14.5, 50.43 14.74 M17.9 3.03 C23.49 0.49, 32.66 -0.26, 38.6 2.23 C44.54 4.73, 50.83 11.97, 53.55 18.02 C56.27 24.07, 56.47 31.44, 54.92 38.55 C53.38 45.67, 48.66 55.9, 44.29 60.71 C39.91 65.52, 34.5 67.55, 28.65 67.4 C22.8 67.25, 14.02 64.31, 9.19 59.82 C4.37 55.33, 0.48 47.89, -0.32 40.47 C-1.11 33.05, 1.44 21.92, 4.42 15.29 C7.4 8.65, 14.99 2.92, 17.57 0.65 C20.15 -1.62, 19.8 1.19, 19.9 1.69" stroke="none" stroke-width="0" fill="#E6D2C1"/><path d="M16.92 3.57 C22.23 0.38, 31.2 -1.29, 37.07 0.72 C42.94 2.74, 49.23 9.63, 52.14 15.64 C55.05 21.65, 55.55 29.86, 54.55 36.8 C53.55 43.74, 50.45 52.16, 46.12 57.29 C41.79 62.41, 34.56 66.96, 28.58 67.55 C22.6 68.15, 15.04 65.27, 10.24 60.85 C5.44 56.43, 1.01 48.17, -0.24 41.03 C-1.48 33.89, -0.82 24.55, 2.76 18 C6.35 11.44, 17.48 4.43, 21.28 1.72 C25.09 -1, 25.54 1.42, 25.61 1.69 M37.42 2.52 C43.04 4.28, 49.6 10.85, 52.83 16.73 C56.05 22.6, 57.89 30.81, 56.77 37.76 C55.64 44.71, 50.75 53.71, 46.05 58.43 C41.35 63.14, 34.48 66.08, 28.57 66.05 C22.66 66.02, 15.06 62.66, 10.58 58.26 C6.09 53.86, 2.9 46.61, 1.67 39.67 C0.44 32.73, 0.49 22.76, 3.21 16.62 C5.93 10.48, 12.32 5.3, 18.01 2.8 C23.71 0.3, 34.03 1.76, 37.38 1.64 C40.73 1.52, 38.57 1.65, 38.11 2.08" stroke="#000000" stroke-width="2" fill="none"/></g><g stroke-linecap="round" transform="translate(223.87057998195905 10.12214988254214) rotate(180.3572722209328 27.874443936711202 33.55257140530053)"><path d="M21.55 0.82 C26.81 -1.24, 34.3 -0.58, 39.64 2.77 C44.97 6.12, 51.07 14.11, 53.58 20.91 C56.09 27.71, 56.32 36.6, 54.7 43.56 C53.09 50.52, 49.06 58.7, 43.89 62.68 C38.72 66.67, 29.88 68.6, 23.69 67.49 C17.49 66.38, 10.75 61.46, 6.72 56.03 C2.69 50.6, -0.32 42.15, -0.51 34.91 C-0.69 27.68, 0.5 18.32, 5.6 12.6 C10.71 6.88, 24.7 2.17, 30.13 0.59 C35.56 -0.99, 38.41 2.73, 38.17 3.09 M17.87 3.68 C23.04 0.91, 30.13 0.91, 35.82 2.74 C41.51 4.56, 48.9 9.1, 51.99 14.65 C55.08 20.2, 54.97 28.67, 54.35 36.05 C53.74 43.44, 52.36 53.89, 48.29 58.97 C44.21 64.05, 35.94 66.38, 29.92 66.53 C23.89 66.68, 16.76 63.96, 12.15 59.87 C7.54 55.77, 4 49, 2.27 41.95 C0.54 34.89, -0.43 23.89, 1.77 17.54 C3.97 11.19, 13.09 6.45, 15.48 3.87 C17.88 1.28, 15.96 1.5, 16.12 2.04" stroke="none" stroke-width="0" fill="#E6D2C1"/><path d="M24.2 1.41 C29.58 0.01, 36.18 2.13, 41.22 5.45 C46.25 8.77, 52.42 14.82, 54.39 21.34 C56.36 27.87, 55.3 37.8, 53.02 44.59 C50.74 51.38, 45.68 58.56, 40.73 62.09 C35.78 65.62, 28.94 67.13, 23.31 65.78 C17.68 64.43, 10.84 59.46, 6.96 54 C3.09 48.53, 0.15 40, 0.06 32.97 C-0.02 25.94, 2.17 17.29, 6.46 11.82 C10.74 6.35, 22.21 2.05, 25.75 0.16 C29.29 -1.73, 27.91 -0.2, 27.69 0.47 M30.35 1.12 C35.97 1.28, 43.54 5.87, 47.56 10.65 C51.59 15.42, 54.01 22.8, 54.52 29.76 C55.03 36.71, 53.92 46.34, 50.61 52.38 C47.3 58.42, 40.54 63.83, 34.66 66.01 C28.78 68.19, 20.67 68.42, 15.33 65.44 C9.99 62.47, 5.15 54.76, 2.62 48.14 C0.09 41.52, -1.41 32.6, 0.14 25.73 C1.69 18.87, 7.05 10.99, 11.94 6.94 C16.83 2.88, 26.58 2.67, 29.46 1.4 C32.35 0.14, 29.37 -1.13, 29.24 -0.65" stroke="#000000" stroke-width="2" fill="none"/></g><g stroke-linecap="round" transform="translate(261.57370305643724 50.366380353550475) rotate(180.3572722209328 27.874443936711202 33.55257140530054)"><path d="M29.93 -0.9 C35.49 -0.79, 42.05 4.32, 46.38 9.53 C50.72 14.75, 55.19 23.1, 55.96 30.41 C56.72 37.71, 54.25 47.57, 50.98 53.37 C47.72 59.16, 42 63.49, 36.35 65.17 C30.7 66.84, 22.71 66.38, 17.06 63.44 C11.41 60.51, 5.2 53.95, 2.45 47.58 C-0.29 41.21, -0.82 32.03, 0.6 25.21 C2.01 18.38, 5.44 10.62, 10.94 6.62 C16.44 2.62, 29.39 2.09, 33.61 1.19 C37.84 0.29, 36.58 0.92, 36.3 1.23 M22.89 0.82 C28.71 -1.08, 37.19 1.64, 42.27 4.78 C47.34 7.92, 51.53 12.98, 53.35 19.68 C55.16 26.39, 54.75 37.94, 53.16 45.04 C51.57 52.13, 48.75 58.5, 43.82 62.26 C38.88 66.02, 29.77 68.4, 23.56 67.62 C17.34 66.83, 10.36 63.21, 6.52 57.55 C2.68 51.9, 0.83 41.3, 0.53 33.67 C0.24 26.03, 1.02 17.35, 4.78 11.72 C8.54 6.1, 20.41 1.88, 23.07 -0.08 C25.74 -2.03, 20.63 -0.68, 20.75 0" stroke="none" stroke-width="0" fill="#E6D2C1"/><path d="M30.78 -0.7 C36.63 -0.76, 44.11 4.72, 48.08 9.69 C52.06 14.66, 54.25 22.15, 54.62 29.11 C54.99 36.06, 53.58 45.24, 50.29 51.44 C47 57.64, 40.64 64.08, 34.89 66.3 C29.13 68.52, 21.24 67.77, 15.74 64.77 C10.24 61.77, 4.42 54.89, 1.88 48.29 C-0.65 41.7, -1.1 32.06, 0.51 25.2 C2.12 18.34, 6.3 11.13, 11.54 7.15 C16.78 3.16, 28.26 2.36, 31.96 1.28 C35.65 0.19, 33.68 0.21, 33.73 0.63 M36.33 1.65 C42.05 2.76, 48.98 7.68, 52.18 13.44 C55.38 19.21, 56.28 29.09, 55.53 36.25 C54.78 43.41, 51.86 51.5, 47.67 56.4 C43.48 61.29, 36.16 64.94, 30.36 65.64 C24.57 66.35, 17.85 64.68, 12.89 60.63 C7.93 56.58, 2.29 48.17, 0.61 41.36 C-1.07 34.54, 0.13 26.15, 2.81 19.74 C5.49 13.32, 11.06 6, 16.69 2.85 C22.32 -0.31, 33.77 1.12, 36.61 0.82 C39.45 0.52, 33.94 0.25, 33.74 1.06" stroke="#000000" stroke-width="2" fill="none"/></g><g stroke-linecap="round" transform="translate(269.7734596210754 99.19537650691035) rotate(180.3572722209328 27.874443936711202 33.55257140530054)"><path d="M24.48 -0.82 C30.13 -1.78, 38.8 2.13, 43.89 6.43 C48.98 10.73, 53.32 17.93, 55.01 24.97 C56.7 32.01, 56.73 42.07, 54.05 48.68 C51.37 55.29, 44.63 61.79, 38.95 64.62 C33.26 67.45, 25.68 67.66, 19.94 65.64 C14.2 63.62, 7.81 58.46, 4.49 52.51 C1.17 46.56, -0.64 36.97, 0.03 29.94 C0.7 22.91, 3.55 15.25, 8.49 10.31 C13.42 5.37, 25.79 1.94, 29.64 0.3 C33.49 -1.34, 31.83 0.03, 31.57 0.47 M20.99 2.43 C26.36 0.11, 35.62 0.27, 40.79 2.94 C45.97 5.61, 49.51 11.64, 52.03 18.42 C54.55 25.21, 57.27 36.62, 55.92 43.66 C54.57 50.71, 48.92 56.95, 43.94 60.72 C38.95 64.48, 31.74 66.79, 26 66.26 C20.25 65.74, 13.97 62.76, 9.46 57.56 C4.95 52.36, -0.14 42.14, -1.06 35.06 C-1.98 27.99, 0.44 21, 3.96 15.1 C7.49 9.21, 17.48 1.71, 20.1 -0.32 C22.71 -2.35, 19.41 2.35, 19.66 2.91" stroke="none" stroke-width="0" fill="#E6D2C1"/><path d="M24.84 0.94 C30.35 -0.36, 39.42 1.3, 44.26 5.21 C49.1 9.12, 52.56 17.38, 53.87 24.39 C55.19 31.4, 54.48 40.8, 52.16 47.28 C49.85 53.76, 45.16 60.33, 39.98 63.28 C34.8 66.23, 26.9 66.81, 21.07 64.98 C15.24 63.15, 8.52 58.05, 5 52.3 C1.47 46.54, -0.76 37.55, -0.08 30.45 C0.59 23.34, 3.99 14.76, 9.05 9.65 C14.11 4.55, 26.43 1.11, 30.28 -0.18 C34.12 -1.47, 32.28 1.23, 32.12 1.92 M32.52 1.75 C37.89 2.16, 43.95 6.09, 47.75 11.3 C51.54 16.51, 55.14 25.75, 55.28 33 C55.42 40.24, 52.47 49, 48.59 54.77 C44.71 60.54, 37.72 66.29, 32 67.61 C26.27 68.94, 19.35 66.32, 14.23 62.7 C9.11 59.08, 3.29 52.45, 1.26 45.87 C-0.77 39.29, 0.06 29.84, 2.04 23.23 C4.03 16.62, 8.24 10.26, 13.18 6.23 C18.12 2.19, 28.69 -0.29, 31.69 -1 C34.7 -1.72, 31 0.98, 31.2 1.95" stroke="#000000" stroke-width="2" fill="none"/></g><g stroke-linecap="round" transform="translate(257.02455954328155 156.93066421776444) rotate(180.3572722209328 27.87444393671123 33.55257140530054)"><path d="M24.64 0.12 C30.33 -0.67, 39.28 2.07, 44.33 6.37 C49.37 10.68, 53.3 19.15, 54.91 25.96 C56.52 32.76, 56.45 40.98, 54 47.21 C51.54 53.44, 45.8 60.31, 40.17 63.34 C34.54 66.37, 26.12 67.17, 20.21 65.38 C14.3 63.58, 8.15 58.35, 4.7 52.58 C1.24 46.81, -1.22 37.81, -0.54 30.76 C0.14 23.71, 3.78 15.58, 8.77 10.3 C13.77 5.02, 25.57 0.76, 29.43 -0.9 C33.29 -2.56, 32.06 -0.29, 31.93 0.34 M39.63 3.31 C44.83 5.24, 49.74 10.13, 52.11 16.52 C54.49 22.91, 54.89 34.37, 53.9 41.65 C52.92 48.94, 50.77 55.87, 46.19 60.25 C41.62 64.62, 32.72 67.95, 26.45 67.91 C20.18 67.88, 12.86 65.15, 8.58 60.02 C4.3 54.9, 1.71 44.72, 0.79 37.15 C-0.12 29.58, -0.13 20.65, 3.12 14.59 C6.36 8.54, 14.64 3.1, 20.27 0.84 C25.9 -1.43, 33.72 0.65, 36.88 1.01 C40.05 1.37, 39.41 2.07, 39.25 2.99" stroke="none" stroke-width="0" fill="#E6D2C1"/><path d="M41.53 4.02 C46.41 6.75, 50.59 13.24, 52.63 19.69 C54.68 26.14, 55.52 35.59, 53.79 42.69 C52.06 49.79, 47.29 58.19, 42.24 62.31 C37.2 66.43, 29.48 68.4, 23.51 67.41 C17.54 66.41, 10.4 61.74, 6.43 56.32 C2.46 50.9, -0.19 41.93, -0.3 34.87 C-0.41 27.8, 2.08 19.45, 5.76 13.93 C9.44 8.4, 15.48 3.18, 21.78 1.72 C28.07 0.25, 39.36 3.87, 43.55 5.13 C47.73 6.4, 47.02 8.66, 46.88 9.31 M35.58 -0.18 C41 0.81, 46.69 7.22, 50.08 12.97 C53.48 18.73, 56.2 27.32, 55.93 34.35 C55.66 41.38, 52.39 49.77, 48.46 55.15 C44.54 60.52, 38.38 65.62, 32.36 66.59 C26.34 67.57, 17.51 64.78, 12.34 60.99 C7.16 57.2, 2.92 50.66, 1.31 43.85 C-0.3 37.05, 0.11 26.93, 2.66 20.16 C5.21 13.39, 11.59 6.58, 16.62 3.23 C21.65 -0.11, 29.77 0.16, 32.83 0.09 C35.9 0.02, 34.69 2.23, 35 2.8" stroke="#000000" stroke-width="2" fill="none"/></g><g stroke-linecap="round" transform="translate(224.7379411971466 202.15523880740028) rotate(180.3572722209328 27.874443936711202 33.55257140530054)"><path d="M27.68 0.35 C33.55 0.04, 41.09 3.09, 45.84 7.77 C50.6 12.44, 55.28 21.24, 56.21 28.4 C57.14 35.57, 54.65 44.72, 51.43 50.76 C48.21 56.81, 42.48 62.33, 36.9 64.69 C31.33 67.04, 23.52 67.37, 17.99 64.9 C12.47 62.44, 6.64 55.96, 3.76 49.88 C0.88 43.81, -0.41 35.41, 0.69 28.48 C1.8 21.54, 5.52 13.11, 10.39 8.28 C15.27 3.46, 26.15 0.72, 29.93 -0.48 C33.71 -1.68, 33.05 0.26, 33.08 1.06 M36.79 1.08 C42.11 2.19, 46.63 7.64, 49.96 13.89 C53.29 20.15, 57.2 31.33, 56.75 38.59 C56.31 45.86, 51.69 52.84, 47.28 57.47 C42.87 62.1, 36.06 65.78, 30.29 66.36 C24.53 66.95, 17.81 65.33, 12.69 60.96 C7.58 56.59, 1.43 47.08, -0.4 40.17 C-2.22 33.26, -1 26, 1.74 19.53 C4.48 13.06, 10.57 4.17, 16.03 1.35 C21.49 -1.47, 31.21 2.71, 34.49 2.62 C37.76 2.53, 35.42 0.4, 35.69 0.79" stroke="none" stroke-width="0" fill="#E6D2C1"/><path d="M40.74 2.66 C45.93 5.11, 50.39 13.04, 52.54 19.71 C54.7 26.38, 55.14 35.8, 53.65 42.67 C52.15 49.53, 48.34 57.01, 43.58 60.89 C38.82 64.77, 31.1 66.73, 25.1 65.94 C19.1 65.15, 11.79 61.24, 7.58 56.15 C3.37 51.06, 0.04 42.52, -0.16 35.39 C-0.37 28.26, 2.57 19.17, 6.34 13.38 C10.12 7.59, 16.06 1.47, 22.47 0.64 C28.89 -0.19, 40.28 6.16, 44.82 8.4 C49.35 10.64, 49.78 13.67, 49.67 14.07 M36.41 1.95 C41.71 3.72, 48.61 10.78, 51.59 17.07 C54.56 23.37, 55.47 32.49, 54.27 39.72 C53.06 46.95, 48.84 55.96, 44.38 60.47 C39.93 64.99, 33.39 67.01, 27.53 66.81 C21.68 66.62, 13.68 63.83, 9.25 59.31 C4.83 54.8, 1.94 46.59, 0.99 39.71 C0.04 32.83, 0.73 24.55, 3.57 18.04 C6.41 11.52, 12.5 3.12, 18.02 0.61 C23.54 -1.9, 33.26 2.43, 36.68 2.96 C40.1 3.49, 38.68 3.37, 38.54 3.78" stroke="#000000" stroke-width="2" fill="none"/></g><g stroke-linecap="round" transform="translate(136.0021277850169 23.502592875230896) rotate(0 80.52617137272128 120.34680556802294)"><path d="M48.16 9.94 C56.03 2.47, 67.49 0.24, 77.31 -0.33 C87.13 -0.89, 98.09 2.01, 107.06 6.56 C116.04 11.11, 124.01 17.68, 131.17 26.99 C138.33 36.3, 145.27 49.81, 150.03 62.43 C154.79 75.06, 158.4 88.37, 159.72 102.73 C161.05 117.1, 160.11 134.51, 157.99 148.63 C155.86 162.75, 152.16 175.59, 146.95 187.45 C141.75 199.31, 134.6 211.51, 126.74 219.8 C118.88 228.09, 109.23 234.07, 99.8 237.2 C90.37 240.34, 79.88 240.55, 70.16 238.61 C60.44 236.68, 50.16 232.65, 41.5 225.6 C32.84 218.55, 24.55 207.57, 18.22 196.33 C11.9 185.1, 6.47 171.73, 3.53 158.21 C0.59 144.7, 0.04 129.58, 0.6 115.26 C1.16 100.95, 3.05 85.51, 6.91 72.33 C10.77 59.15, 16.75 46.85, 23.78 36.2 C30.81 25.54, 44.25 12.62, 49.11 8.4 C53.96 4.18, 52.36 8.97, 52.93 10.87 M79.05 -1.28 C87.98 -3.68, 96.91 0.55, 105.74 5.38 C114.57 10.22, 124.44 18.03, 132.02 27.75 C139.6 37.48, 146.4 51.04, 151.22 63.74 C156.04 76.43, 159.43 89.87, 160.91 103.93 C162.39 117.99, 162.29 133.7, 160.09 148.12 C157.9 162.53, 153.48 178.27, 147.73 190.43 C141.98 202.58, 133.65 213.07, 125.58 221.05 C117.52 229.03, 108.75 235.45, 99.33 238.32 C89.9 241.18, 78.58 240.26, 69.04 238.21 C59.5 236.16, 50.68 233.01, 42.06 226.04 C33.44 219.06, 23.64 208.01, 17.32 196.35 C11.01 184.69, 6.92 170, 4.17 156.09 C1.43 142.19, 0.28 127.12, 0.85 112.94 C1.41 98.76, 3.82 84.18, 7.56 71.01 C11.31 57.84, 16.68 44.19, 23.31 33.93 C29.94 23.67, 38.5 14.99, 47.34 9.45 C56.18 3.91, 71.39 1.62, 76.33 0.69 C81.28 -0.25, 76.75 1.73, 77 3.85" stroke="none" stroke-width="0" fill="#E6D2C1"/><path d="M48.89 8.09 C56.68 0.93, 68.4 -0.81, 78.15 -0.87 C87.9 -0.93, 98.29 2.53, 107.39 7.73 C116.49 12.92, 125.49 20.84, 132.74 30.31 C140 39.77, 146.34 51.81, 150.92 64.52 C155.49 77.22, 158.95 92.01, 160.21 106.53 C161.47 121.04, 160.86 137.4, 158.45 151.6 C156.05 165.81, 151.49 180.28, 145.77 191.75 C140.05 203.23, 132.13 212.7, 124.11 220.45 C116.09 228.21, 107.01 235.13, 97.64 238.28 C88.28 241.44, 77.53 241.65, 67.93 239.38 C58.33 237.12, 48.43 231.95, 40.04 224.68 C31.65 217.41, 23.79 207.29, 17.59 195.78 C11.39 184.27, 5.8 169.62, 2.85 155.64 C-0.1 141.66, -0.79 126.32, -0.1 111.91 C0.59 97.49, 2.97 82.15, 7.01 69.15 C11.05 56.15, 14.75 45.01, 24.14 33.91 C33.52 22.8, 54.45 7.75, 63.31 2.53 C72.17 -2.7, 76.9 0.52, 77.27 2.56 M73.85 -0.53 C82.89 -3.03, 95.86 2.42, 105.52 6.78 C115.19 11.13, 124.39 16.82, 131.85 25.61 C139.32 34.39, 145.66 46.86, 150.32 59.48 C154.98 72.11, 158.56 87.26, 159.8 101.37 C161.04 115.49, 159.76 129.93, 157.77 144.18 C155.78 158.44, 152.87 174.56, 147.85 186.93 C142.82 199.29, 135.3 209.83, 127.63 218.39 C119.97 226.96, 111.49 234.58, 101.87 238.31 C92.26 242.05, 79.97 242.84, 69.94 240.81 C59.9 238.78, 50.21 233.17, 41.68 226.14 C33.16 219.11, 24.97 209.68, 18.78 198.63 C12.6 187.58, 7.62 173.28, 4.57 159.83 C1.52 146.37, 0.06 132.15, 0.49 117.9 C0.91 103.65, 3.7 87.97, 7.13 74.31 C10.56 60.64, 14.71 46.54, 21.08 35.92 C27.44 25.3, 36.43 16.34, 45.33 10.59 C54.23 4.84, 69.33 2.72, 74.48 1.41 C79.63 0.1, 75.78 0.77, 76.22 2.73" stroke="transparent" stroke-width="2" fill="none"/></g><g stroke-linecap="round" transform="translate(207.7660671088371 21.226353755091843) rotate(0 7.742901093530918 121.79432509685591)"><path d="M1.19 -0.46 L13.86 -1.67 L17.08 245.07 L0.4 242.91" stroke="none" stroke-width="0" fill="#CECDCC"/><path d="M-1.21 1.28 C4.78 -1.66, 7.29 -1.2, 14.09 -1 M-0.72 0.05 C5.15 -0.25, 10.82 0.5, 15.47 0.7 M15.7 0.89 C14.25 68.19, 14.91 135.34, 16.99 242.42 M14.91 0.14 C14.12 72.14, 14.72 142.83, 15.13 243.65 M16.86 243.19 C8.81 242.75, 5.93 244.87, 1.14 242.9 M15.47 242.82 C9.88 243.57, 6 243.72, 0.06 244.3 M-1.15 243.07 C0.48 147.69, 1.25 51.57, 0.5 0.84 M-0.56 242.91 C-0.9 155.65, 0.08 69.03, 0.04 0.76" stroke="transparent" stroke-width="2" fill="none"/></g><g stroke-linecap="round"><g transform="translate(209.83084073377972 22.638917340552204) rotate(0 0.5161934062354021 118.72448343414038)"><path d="M-0.94 0.99 C-0.91 40.18, 1.2 197, 1.33 236.28 M0.77 0.47 C0.57 40.27, 0.31 197.69, 0.54 237.2" stroke="#000000" stroke-width="2" fill="none"/></g></g><g stroke-linecap="round"><g transform="translate(220.15470885848697 24.703690965493358) rotate(0 0.5161934062354021 118.72448343414038)"><path d="M0.99 0.3 C0.78 39.84, -0.01 196.94, -0.14 236.28 M0.05 -0.59 C0.09 39.13, 1.52 197.59, 1.96 237.21" stroke="#000000" stroke-width="2" fill="none"/></g></g><g stroke-linecap="round"><g transform="translate(160.4326959794929 135.48192438849486) rotate(0 17.597502485297696 11.199832692864845)"><path d="M0.3 -1.17 C1.98 2.26, 3.52 18.43, 9.16 21.58 C14.79 24.73, 29.68 18.41, 34.12 17.75 M-1 0.83 C1.11 4.3, 5.02 19.72, 11.26 22.69 C17.5 25.66, 32.27 19.4, 36.45 18.66" stroke="#000000" stroke-width="2" fill="none"/></g></g><g stroke-linecap="round"><g transform="translate(172.2269332007496 158.1005809162636) rotate(0 -12.372999525218347 12.701486238276942)"><path d="M-1.17 -1.17 C-2.45 1.81, -2.64 13.61, -6.7 18.13 C-10.76 22.66, -22.36 24.66, -25.52 25.99 M0.41 0.84 C-0.58 3.89, -0.51 15.25, -4.42 19.1 C-8.33 22.96, -19.45 23.15, -23.03 23.95" stroke="#000000" stroke-width="2" fill="none"/></g></g><g stroke-linecap="round"><g transform="translate(268.95844908437715 157.25590079696957) rotate(0 -17.597502485297724 11.199832692864845)"><path d="M-1.17 -0.82 C-3.12 2.98, -5.83 18.56, -11.4 21.62 C-16.98 24.69, -30.76 18.3, -34.61 17.59 M0.42 1.37 C-1.2 5.4, -3.34 19.91, -9.26 22.76 C-15.17 25.6, -30.96 19.23, -35.07 18.42" stroke="#000000" stroke-width="2" fill="none"/></g></g><g stroke-linecap="round"><g transform="translate(260.10495005622033 180.8756596883465) rotate(0 12.372999525218347 12.701486238276942)"><path d="M-0.82 -1.08 C0.23 2.42, 1 15.26, 5.11 19.79 C9.21 24.32, 20.73 25.15, 23.82 26.1 M0.95 0.97 C2.48 4.21, 3.2 14.12, 7.41 17.98 C11.62 21.84, 23.58 22.68, 26.23 24.12" stroke="#000000" stroke-width="2" fill="none"/></g></g><g stroke-linecap="round"><g transform="translate(223.9550892985966 78.66936525373848) rotate(0 14.515984272316445 -12.013228363296378)"><path d="M-1.08 -0.78 C0.59 -3.42, 3.71 -12.63, 8.84 -16.69 C13.98 -20.75, 26.35 -23.85, 29.73 -25.14 M0.56 1.43 C2.22 -1.02, 3.41 -11.34, 8.2 -15.64 C13 -19.95, 25.8 -23.09, 29.33 -24.4" stroke="#000000" stroke-width="2" fill="none"/></g></g><g stroke-linecap="round"><g transform="translate(179.40603411804 239.34629461282776) rotate(0 8.008818908864498 -8.38423229521726)"><path d="M-0.78 0.58 C-0.25 -1.91, -0.29 -13.19, 2.33 -16.07 C4.94 -18.95, 12.69 -16.54, 14.91 -16.7 M1.02 -0.15 C1.99 -2.9, 1.85 -15.3, 4.55 -17.83 C7.25 -20.36, 15.37 -15.64, 17.22 -15.34" stroke="#000000" stroke-width="2" fill="none"/></g></g><g stroke-linecap="round"><g transform="translate(151.87571911881764 86.42790857170036) rotate(0 19.64663388580749 -1.6267913408631713)"><path d="M0.58 -0.93 C4.05 -2.86, 13.25 -13.8, 19.72 -12.37 C26.18 -10.95, 36.14 4.21, 39.36 7.62 M-0.57 1.2 C2.9 -0.56, 12.6 -12.67, 19.13 -11.42 C25.67 -10.16, 35.3 5.3, 38.64 8.73" stroke="#000000" stroke-width="2" fill="none"/></g></g><g stroke-linecap="round"><g transform="translate(252.48650666142333 113.45767238911736) rotate(0 14.015433090512516 -11.012125999688323)"><path d="M-0.93 0.7 C2.06 0.19, 12.4 1.4, 17.16 -2.43 C21.92 -6.26, 25.82 -19.15, 27.64 -22.27 M0.79 0.02 C4.2 -0.33, 14.98 2.66, 19.29 -0.86 C23.6 -4.37, 25.16 -17.36, 26.67 -21.08" stroke="#000000" stroke-width="2" fill="none"/></g></g><g stroke-linecap="round"><g transform="translate(198.13509372723058 89.86922709355414) rotate(151.4051766414644 -68.69228318155047 74.5716522301711)" fill-rule="evenodd"><path d="M0.27 0.3 L14.34 28.47 L16.34 44.15 L20.61 72.5 L18.81 90.35 L16.95 104.4 L12.29 120.4 L-2.26 143.57 L-8.94 151.95 L-67.42 111.71 L-105.02 91.84 L-153.37 74.6 L-154.43 72.99 L-93.6 52.11 L-40.22 28.94 L-26.26 18.76 L-2 -1.32" stroke="none" stroke-width="0" fill="white" fill-rule="evenodd"/><path d="M0.34 -0.49 C3.33 6.72, 14.81 25.62, 17.45 43.12 C20.1 60.63, 20.1 86.69, 16.22 104.54 C12.34 122.39, 0.53 143.62, -5.81 150.23 C-12.14 156.83, -11.33 150.63, -21.8 144.18 C-32.27 137.73, -49.08 122.06, -68.64 111.51 C-88.2 100.96, -124.76 87.14, -139.16 80.89 C-153.56 74.64, -155.05 76.46, -155.03 74.01 C-155.01 71.56, -149.05 69.6, -139.02 66.19 C-129 62.78, -111.27 59.48, -94.89 53.54 C-78.5 47.61, -54.42 38.12, -40.7 30.57 C-26.97 23.01, -19.39 13.3, -12.55 8.21 C-5.71 3.12, -1.69 1.44, 0.35 0.01 M-0.94 -1.79 C1.93 5.06, 13.76 23.33, 16.46 41.21 C19.17 59.09, 18.94 87.67, 15.28 105.51 C11.63 123.35, 0.98 142.24, -5.45 148.24 C-11.88 154.23, -12.99 147.72, -23.31 141.47 C-33.62 135.22, -48.1 120.96, -67.34 110.74 C-86.59 100.52, -123.99 86.23, -138.79 80.15 C-153.58 74.07, -156.34 76.27, -156.12 74.26 C-155.89 72.25, -147.8 71.56, -137.46 68.1 C-127.12 64.64, -109.75 59.63, -94.08 53.51 C-78.41 47.39, -57.33 38.49, -43.42 31.37 C-29.52 24.26, -18.03 16.2, -10.66 10.83 C-3.3 5.47, -0.82 1.13, 0.76 -0.81" stroke="#000000" stroke-width="1" fill="none"/></g></g><g stroke-linecap="round"><g transform="translate(245.48380807608623 162.0699593673335) rotate(151.4051766414644 -94.54666973544994 49.014606928050554)"><path d="M-0.08 0.4 C-13.42 10.29, -48.2 42.39, -79.67 58.85 C-111.13 75.3, -170.64 92.4, -188.89 99.11 M-1.59 -0.43 C-15.14 9.64, -49.46 43.74, -80.79 60.04 C-112.11 76.33, -171.52 91.16, -189.54 97.34" stroke="#000000" stroke-width="4" fill="none"/></g></g><g stroke-linecap="round"><g transform="translate(23.119596150437474 72.15904609237688) rotate(151.4051766414644 89.5877440240634 50.24304685580594)"><path d="M-0.32 -0.66 C16.69 7.11, 72.12 29.98, 102.02 47.02 C131.93 64.06, 166.28 92.56, 179.1 101.55 M1.71 1.61 C18.59 9.03, 71.75 29.11, 101.18 45.47 C130.62 61.83, 165.32 90.9, 178.3 99.77" stroke="#000000" stroke-width="4" fill="none"/></g></g><g stroke-linecap="round"><g transform="translate(74.25949749261258 233.71620019561175) rotate(151.4051766414644 -8.316045986266374 -31.954146197022894)" fill-rule="evenodd"><path d="M-16.89 -49.13 C-16.89 -49.13, -16.89 -49.13, -16.89 -49.13 M-16.89 -49.13 C-16.89 -49.13, -16.89 -49.13, -16.89 -49.13 M-18.93 -39.48 C-14.93 -44.29, -13.97 -47.81, -0.77 -61.59 M-18.3 -41.46 C-13.62 -48.34, -7.01 -56.32, -2.25 -60.02 M-20.55 -32.41 C-12.74 -41.99, -7.22 -46.32, 4.9 -60.34 M-19.7 -33.44 C-10.47 -42.85, -2.36 -54.42, 4.11 -61.93 M-21.55 -27.56 C-14.55 -34.65, -6.7 -42.6, 7.69 -57.83 M-19.68 -27.22 C-13.01 -35.35, -5.88 -41.9, 7.38 -57.47 M-19.49 -20.5 C-12.45 -31.26, -1.11 -41.82, 6.46 -51.92 M-19.92 -22.65 C-12.56 -30.34, -3.35 -38.42, 7.1 -51.49 M-18.18 -18.19 C-12.66 -24.1, -6.16 -31.84, 7.72 -44.94 M-17.84 -17.03 C-9.61 -26.4, -2.24 -37.01, 7.6 -45.48 M-16.94 -12.78 C-8.8 -21.75, -3.6 -28.26, 5.03 -37.48 M-17.48 -12.76 C-11.12 -19.74, -5.4 -27.23, 4.91 -38.23 M-14 -10 C-10.25 -16.3, -4.56 -20.66, 5.64 -31.22 M-13.4 -10.6 C-7.18 -18.19, -1.79 -23.74, 5.71 -32.64 M-9.6 -7.61 C-7.33 -12.19, -3.93 -17.61, 3.34 -23.73 M-11.43 -6.12 C-6.39 -13.55, 0.03 -20.33, 5.61 -25.35 M-7.96 -5.72 C-3.85 -9.27, 0.2 -14.1, 2.05 -19.31 M-7.37 -4.97 C-2.91 -9.25, 0.42 -14.68, 3.01 -17.82 M-4.33 -2.51 C-1.39 -5.7, 1.88 -7.78, 3.34 -10.51 M-4.73 -2.17 C-2.55 -5.14, -0.71 -6.98, 3.06 -10.97 M-0.67 -0.64 C-0.4 -1.4, 0.66 -1.64, 1.96 -3.78 M-0.88 -0.78 C0.32 -1.47, 0.89 -2.49, 1.73 -3.7 M-13.29 -9.1 C-13.29 -9.1, -13.29 -9.1, -13.29 -9.1 M-13.29 -9.1 C-13.29 -9.1, -13.29 -9.1, -13.29 -9.1 M-0.12 0.02 C-2.86 -3.64, -7.21 -5.48, -13.8 -14.31 M1.08 -0.86 C-4.89 -5.49, -10.71 -10.65, -14.98 -16.01 M2.92 -8.17 C-4.95 -13.62, -8.36 -15.24, -17.34 -21.67 M1.25 -7.08 C-5.43 -12.65, -10.81 -18.66, -16.17 -23.24 M1.7 -10.06 C-4.97 -17.66, -12.28 -24.79, -20.88 -28.9 M3.27 -11.29 C-4.93 -17.17, -11.31 -22.67, -19.2 -30.34 M1.33 -14.73 C-4.58 -19.14, -8.96 -25.83, -21.38 -35.19 M3.21 -16.78 C-5.66 -24.78, -16.2 -32.21, -21.4 -37.28 M4.94 -22.88 C-5.69 -29.43, -12.67 -34.9, -21.16 -42.97 M4.58 -21.39 C-3.85 -28.16, -12.49 -34.2, -21.36 -42.31 M5.59 -25.98 C-4.35 -35.09, -13.81 -40.14, -18.13 -46.96 M4.58 -24.47 C-0.04 -30.53, -5.97 -33.91, -17.81 -45.89 M3.97 -31.22 C-1.76 -34.42, -7.46 -38.33, -16.95 -47.78 M5.29 -30.83 C-0.17 -35.37, -7.47 -40.23, -16.4 -48.3 M7.03 -34.65 C0.47 -36.99, -1.12 -41.59, -14.47 -53.88 M4.68 -35.72 C-1.67 -41.69, -9.93 -47.87, -13.64 -52.34 M4.27 -39.54 C0.04 -43.56, 0.13 -48.41, -12.42 -56.48 M4.26 -40.13 C2.18 -44.39, -2.05 -47.85, -11.29 -54.29 M5.57 -46.14 C2.27 -51.46, -4.35 -54.52, -9.25 -56.75 M5.38 -46.39 C1.46 -49.34, -2.42 -51.88, -8.75 -57.8 M4.37 -51.47 C1.84 -54.55, 0.41 -55.21, -5.64 -58.96 M5.25 -51.21 C2.22 -54.41, 0.04 -55.91, -4.57 -60.67 M3.95 -57.26 C1.85 -58.6, 1.02 -60.96, -2.83 -63.93 M4.95 -56.92 C2.27 -58.62, -0.26 -60.88, -1.96 -63.32" stroke="#009999" stroke-width="0.5" fill="none"/><path d="M0.21 1.08 C-2.53 -0.89, -13.15 -5.42, -16.75 -12.51 C-20.35 -19.59, -24.48 -33.08, -21.42 -41.46 C-18.36 -49.83, -2.7 -64.74, 1.61 -62.75 C5.92 -60.76, 4.85 -39.87, 4.45 -29.52 C4.05 -19.18, -0.08 -5.75, -0.8 -0.7 M-1.14 0.61 C-4.02 -1.62, -14.21 -6.71, -17.74 -14.07 C-21.26 -21.42, -25.52 -35.09, -22.3 -43.53 C-19.08 -51.97, -2.62 -66.59, 1.58 -64.7 C5.79 -62.82, 3.15 -43.24, 2.92 -32.2 C2.69 -21.16, 0.55 -3.79, 0.19 1.56" stroke="#000000" stroke-width="1" fill="none"/></g></g><g stroke-linecap="round"><g transform="translate(242.82832512228407 58.1827967445299) rotate(151.4051766414644 -60.84946959716382 72.92359613963964)" fill-rule="evenodd"><path d="M1.06 -1.38 L21.1 28.87 L26.71 41.04 L28.78 74.83 L23.41 105.79 L22.16 117.48 L10.85 140.02 L1.25 146.29 L-58.45 110.04 L-148.75 71.16 L-141.82 65.63 L-84.88 47.64 L-61.85 37.39 L-36.43 23.55 L-1.68 1.66" stroke="none" stroke-width="0" fill="white" fill-rule="evenodd"/><path d="M-0.07 1.07 C4.24 7.95, 21.94 24.95, 26.08 42.35 C30.23 59.75, 28.42 88.04, 24.8 105.48 C21.19 122.91, 10.64 141.38, 4.39 146.98 C-1.85 152.57, -2.01 145.15, -12.65 139.02 C-23.29 132.89, -40.15 120.47, -59.43 110.19 C-78.72 99.92, -113.49 84.34, -128.37 77.4 C-143.24 70.45, -148.38 71.03, -148.69 68.51 C-148.99 65.99, -140.5 65.51, -130.19 62.29 C-119.89 59.07, -102.85 55.41, -86.87 49.2 C-70.88 42.99, -48.78 33.37, -34.27 25.05 C-19.77 16.73, -5.42 3.32, 0.18 -0.71 M-1.57 0.58 C2.55 7.61, 20.79 23.31, 25.02 40.5 C29.24 57.69, 27.17 86.32, 23.77 103.74 C20.36 121.16, 10.36 139.13, 4.58 145.01 C-1.19 150.9, -0.46 144.95, -10.88 139.05 C-21.31 133.14, -38 119.49, -57.98 109.57 C-77.96 99.65, -116.04 85.92, -130.77 79.53 C-145.51 73.14, -146.26 74.32, -146.41 71.21 C-146.56 68.11, -141.71 64.69, -131.69 60.91 C-121.66 57.13, -102.58 54.33, -86.28 48.53 C-69.98 42.74, -48.06 34.47, -33.87 26.13 C-19.68 17.79, -6.64 2.77, -1.14 -1.51" stroke="#000000" stroke-width="1" fill="none"/></g></g><g stroke-linecap="round"><g transform="translate(303.8694140047303 127.52133378069911) rotate(151.4051766414644 -94.54666973544994 49.014606928050554)"><path d="M-0.23 0.52 C-13.52 10.45, -48.36 44.22, -79.86 60.66 C-111.35 77.1, -170.86 93.05, -189.2 99.16 M-1.8 -0.26 C-15.3 9.89, -49.71 42.87, -81.08 59.15 C-112.45 75.42, -171.86 90.92, -190.03 97.41" stroke="#000000" stroke-width="4" fill="none"/></g></g><g stroke-linecap="round"><g transform="translate(72.87690606890828 41.16255644881834) rotate(151.4051766414644 89.5877440240634 50.24304685580594)"><path d="M-0.51 1.16 C16.47 8.91, 71.89 30.63, 101.71 47.07 C131.52 63.51, 165.45 90.75, 178.37 99.79 M1.42 0.72 C18.26 8.12, 70.8 28.86, 100.7 45.54 C130.6 62.21, 167.7 91.81, 180.84 100.74" stroke="#000000" stroke-width="4" fill="none"/></g></g><g stroke-linecap="round"><g transform="translate(125.39847686518976 200.20857616355468) rotate(151.4051766414644 -8.789891370173393 -31.443743199169035)" fill-rule="evenodd"><path d="M-17.27 -49.47 C-17.27 -49.47, -17.27 -49.47, -17.27 -49.47 M-17.27 -49.47 C-17.27 -49.47, -17.27 -49.47, -17.27 -49.47 M-18.02 -39.44 C-14.41 -45.77, -9.94 -56.04, -3.71 -61.67 M-20.06 -40.9 C-16.23 -45.61, -11.21 -49.18, -4.03 -59.36 M-18.57 -32.99 C-11.29 -42.67, -4.81 -50.46, 4.32 -60.16 M-20.18 -33.87 C-13.21 -41.8, -8.15 -48.44, 2.74 -60.14 M-21.62 -27.69 C-12.53 -35.53, -4.89 -45.44, 3.72 -55.19 M-20.49 -26.9 C-12.46 -38.29, -1.35 -49.6, 4.86 -55.72 M-19.05 -21.31 C-14.66 -30.65, -9.37 -36.83, 4.54 -47.55 M-19.29 -22.61 C-10.01 -33.8, -1.3 -44.58, 4.65 -50.28 M-16.81 -18.46 C-8.28 -28.48, -0.36 -36.35, 5.79 -44.51 M-17.56 -19.36 C-13.32 -24.54, -8.22 -28.81, 3.45 -43.54 M-17.03 -12.74 C-9.67 -21.55, -6.3 -25.4, 4.36 -38.08 M-16.61 -13.28 C-12.14 -19.78, -6.54 -25.63, 3.94 -37.91 M-13.3 -10.55 C-9.58 -17.78, -1.91 -24.89, 2.23 -32.62 M-14.03 -10.99 C-7.63 -17.65, -0.71 -26.52, 3.79 -31.97 M-9.82 -6.1 C-6.01 -13.43, -0.96 -18.63, 3.32 -24.14 M-10.4 -8.54 C-6.6 -12.42, -4.29 -16.35, 3.82 -24.75 M-6.95 -3.89 C-5.94 -8.87, -1.12 -11.26, 3.32 -17.39 M-7.33 -6.18 C-5.05 -8.26, -2.78 -10.91, 2.55 -16.81 M-5.11 -2.71 C-1.55 -6.22, 0.62 -8.55, 1.16 -10.7 M-5.27 -2.95 C-2.53 -5.09, -0.74 -7.79, 1.61 -9.99 M-1.01 -1.12 C-0.66 -2, 0.1 -2.37, 1.1 -3.46 M-1.2 -1.02 C-0.51 -1.84, 0.36 -2.76, 0.98 -3.35 M-12.97 -9.47 C-12.97 -9.47, -12.97 -9.47, -12.97 -9.47 M-12.97 -9.47 C-12.97 -9.47, -12.97 -9.47, -12.97 -9.47 M2.79 -1.96 C-4.37 -8.21, -9.8 -14.61, -12.97 -18.27 M1.85 -2.16 C-4.48 -6.8, -11.13 -13.09, -15.8 -15.61 M3.23 -6.11 C-4.47 -14.4, -13.84 -20.67, -18.1 -22.12 M2.19 -7.2 C-4.04 -11.99, -7.7 -16.33, -17.85 -24.86 M3.01 -12.72 C-3.08 -14.86, -6.82 -20.86, -18.38 -30.14 M1.97 -12.6 C-5.32 -20.16, -13.37 -27.28, -17.69 -30.41 M5.55 -17.05 C-4.58 -23.07, -14 -28.59, -21.48 -37.77 M3.82 -16.9 C-5.46 -23.08, -14.26 -31.77, -21.24 -37.38 M4.54 -22.73 C-2.89 -26.18, -12.67 -33.65, -21.4 -42.46 M4.9 -20.74 C-6.29 -29.25, -15.91 -37.98, -21.81 -42.84 M2.58 -26.9 C-6.34 -34.21, -11.49 -41.03, -20.5 -48.01 M3.94 -25.97 C-3.25 -33.6, -11.82 -40.24, -18.72 -47.03 M3.42 -30.51 C-4.78 -38.35, -13.46 -43.94, -16.13 -50.26 M2.95 -32.82 C-4.01 -37.26, -10.47 -44.93, -15.57 -48.95 M5.06 -36.81 C-3.91 -44.3, -9.2 -47.11, -13.59 -53.55 M2.65 -38.26 C-2.45 -43.09, -7.74 -48.68, -13.73 -51.73 M1.66 -44.28 C-0.31 -47.55, -1.69 -47.62, -12.03 -55.79 M3.72 -43.95 C-0.52 -45.82, -3.33 -47.74, -11.89 -55.63 M2.82 -47 C-1.41 -51.32, -4.72 -55.02, -9.17 -59.86 M2.99 -48.05 C0.12 -52, -4.28 -55.49, -9.27 -58.6 M4.31 -52.79 C1.04 -54.72, -1.18 -58.1, -6.25 -60.04 M4.53 -52.19 C1.37 -56.14, -2.58 -59.25, -5.07 -60.74 M2.85 -59.37 C1.47 -60.18, 0.33 -62.07, -1.96 -64.76 M2.62 -59.25 C0.84 -60.65, -0.39 -62.32, -2.45 -64.13" stroke="#009999" stroke-width="0.5" fill="none"/><path d="M-0.11 1.13 C-2.92 -1.56, -13.88 -7.81, -17.36 -14.98 C-20.84 -22.15, -24.03 -33.85, -20.99 -41.89 C-17.94 -49.93, -3.04 -64.68, 0.92 -63.23 C4.89 -61.78, 2.9 -43.73, 2.8 -33.19 C2.71 -22.65, 0.87 -5.46, 0.35 0.01 M-1.63 0.67 C-4.01 -1.36, -11.72 -6.39, -15.07 -13.81 C-18.41 -21.22, -23.91 -35.73, -21.71 -43.81 C-19.51 -51.9, -6.27 -64.04, -1.88 -62.3 C2.51 -60.57, 4.61 -43.63, 4.63 -33.41 C4.66 -23.2, -0.97 -6.88, -1.72 -1.03" stroke="#000000" stroke-width="1" fill="none"/></g></g></svg>