<svg version="1.1" xmlns="http://www.w3.org/2000/svg" viewBox="0 0 219.1361206859258 140.97066842799254" width="219.1361206859258" height="140.97066842799254">
  <!-- svg-source:excalidraw -->
  
  <defs>
    <style>
      @font-face {
        font-family: "Virgil";
        src: url("https://unpkg.com/@zsviczian/excalidraw@0.12.0-obsidian-9/dist/excalidraw-assets/Virgil.woff2");
      }
      @font-face {
        font-family: "Cascadia";
        src: url("https://unpkg.com/@zsviczian/excalidraw@0.12.0-obsidian-9/dist/excalidraw-assets/Cascadia.woff2");
      }
    </style>
  </defs>
  <rect x="0" y="0" width="219.1361206859258" height="140.97066842799254" fill="#FFF6F0"/><g stroke-linecap="round"><g transform="translate(10.574612990724205 10.287306495362174) rotate(0 98.99344735223868 60.198027718634094)" fill-rule="evenodd"><path d="M0 0 L198.56 -0.29 L198.39 119.5 L185.05 119.62 L184.89 116.19 L10.4 117.02 L10.4 120.68 L-0.57 120.68 L0 0" stroke="none" stroke-width="0" fill="#755941" fill-rule="evenodd"/><path d="M0 0 C47.96 -0.07, 95.93 -0.14, 198.56 -0.29 M0 0 C74.61 -0.11, 149.23 -0.22, 198.56 -0.29 M198.56 -0.29 C198.51 38.85, 198.45 77.99, 198.39 119.5 M198.56 -0.29 C198.51 34.69, 198.46 69.67, 198.39 119.5 M198.39 119.5 C194.57 119.54, 190.75 119.57, 185.05 119.62 M198.39 119.5 C195.12 119.53, 191.85 119.56, 185.05 119.62 M185.05 119.62 C184.99 118.38, 184.93 117.15, 184.89 116.19 M185.05 119.62 C184.99 118.36, 184.93 117.11, 184.89 116.19 M184.89 116.19 C146.14 116.38, 107.39 116.56, 10.4 117.02 M184.89 116.19 C120.67 116.5, 56.46 116.8, 10.4 117.02 M10.4 117.02 C10.4 117.84, 10.4 118.66, 10.4 120.68 M10.4 117.02 C10.4 118.29, 10.4 119.55, 10.4 120.68 M10.4 120.68 C6.63 120.68, 2.85 120.68, -0.57 120.68 M10.4 120.68 C7.32 120.68, 4.23 120.68, -0.57 120.68 M-0.57 120.68 C-0.44 92, -0.3 63.33, 0 0 M-0.57 120.68 C-0.43 90.57, -0.29 60.45, 0 0 M0 0 C0 0, 0 0, 0 0 M0 0 C0 0, 0 0, 0 0" stroke="black" stroke-width="1" fill="none"/></g></g><g stroke-linecap="round" transform="translate(61.559630729265706 101.69777381249204) rotate(0 23.784226875093914 10.97733548081257)"><path d="M0 0 L47.57 0 L47.57 21.95 L0 21.95" stroke="none" stroke-width="0" fill="#AF9178"/><path d="M0 0 C15.39 0, 30.78 0, 47.57 0 M0 0 C13.21 0, 26.41 0, 47.57 0 M47.57 0 C47.57 4.47, 47.57 8.94, 47.57 21.95 M47.57 0 C47.57 8.37, 47.57 16.73, 47.57 21.95 M47.57 21.95 C29.46 21.95, 11.34 21.95, 0 21.95 M47.57 21.95 C31.91 21.95, 16.24 21.95, 0 21.95 M0 21.95 C0 14.14, 0 6.32, 0 0 M0 21.95 C0 14.03, 0 6.11, 0 0" stroke="black" stroke-width="1" fill="none"/></g><g stroke-linecap="round" transform="translate(76.19607803701493 109.01599746636711) rotate(0 9.147779567343811 3.659111826937526)"><path d="M0 0 L18.3 0 L18.3 7.32 L0 7.32" stroke="none" stroke-width="0" fill="#CECDCC"/><path d="M0 0 C4.92 0, 9.83 0, 18.3 0 M0 0 C3.88 0, 7.77 0, 18.3 0 M18.3 0 C18.3 2.22, 18.3 4.43, 18.3 7.32 M18.3 0 C18.3 2.38, 18.3 4.76, 18.3 7.32 M18.3 7.32 C13.92 7.32, 9.55 7.32, 0 7.32 M18.3 7.32 C13.67 7.32, 9.04 7.32, 0 7.32 M0 7.32 C0 4.91, 0 2.51, 0 0 M0 7.32 C0 4.7, 0 2.09, 0 0" stroke="black" stroke-width="1" fill="none"/></g><g stroke-linecap="round" transform="translate(109.32454717830788 101.69777381249204) rotate(0 23.784226875093914 10.97733548081257)"><path d="M0 0 L47.57 0 L47.57 21.95 L0 21.95" stroke="none" stroke-width="0" fill="#AF9178"/><path d="M0 0 C11.28 0, 22.55 0, 47.57 0 M0 0 C14.06 0, 28.11 0, 47.57 0 M47.57 0 C47.57 5.99, 47.57 11.98, 47.57 21.95 M47.57 0 C47.57 6.44, 47.57 12.88, 47.57 21.95 M47.57 21.95 C29.41 21.95, 11.26 21.95, 0 21.95 M47.57 21.95 C29.25 21.95, 10.94 21.95, 0 21.95 M0 21.95 C0 16.38, 0 10.8, 0 0 M0 21.95 C0 16.41, 0 10.87, 0 0" stroke="black" stroke-width="1" fill="none"/></g><g stroke-linecap="round" transform="translate(123.9609944860571 109.01599746636711) rotate(0 9.147779567343811 3.659111826937526)"><path d="M0 0 L18.3 0 L18.3 7.32 L0 7.32" stroke="none" stroke-width="0" fill="#CECDCC"/><path d="M0 0 C4.08 0, 8.15 0, 18.3 0 M0 0 C3.9 0, 7.8 0, 18.3 0 M18.3 0 C18.3 2.65, 18.3 5.3, 18.3 7.32 M18.3 0 C18.3 1.93, 18.3 3.86, 18.3 7.32 M18.3 7.32 C14.56 7.32, 10.83 7.32, 0 7.32 M18.3 7.32 C13.52 7.32, 8.75 7.32, 0 7.32 M0 7.32 C0 5.61, 0 3.91, 0 0 M0 7.32 C0 5.67, 0 4.02, 0 0" stroke="black" stroke-width="1" fill="none"/></g><g stroke-linecap="round" transform="translate(157.42606382466107 101.92631672493789) rotate(0 23.784226875093907 10.97733548081257)"><path d="M0 0 L47.57 0 L47.57 21.95 L0 21.95" stroke="none" stroke-width="0" fill="#AF9178"/><path d="M0 0 C18.13 0, 36.25 0, 47.57 0 M0 0 C13.39 0, 26.78 0, 47.57 0 M47.57 0 C47.57 8.1, 47.57 16.21, 47.57 21.95 M47.57 0 C47.57 5.95, 47.57 11.9, 47.57 21.95 M47.57 21.95 C36.26 21.95, 24.96 21.95, 0 21.95 M47.57 21.95 C34.7 21.95, 21.84 21.95, 0 21.95 M0 21.95 C0 13.28, 0 4.6, 0 0 M0 21.95 C0 16.98, 0 12.01, 0 0" stroke="black" stroke-width="1" fill="none"/></g><g stroke-linecap="round" transform="translate(172.0625111324103 109.2445403788125) rotate(0 9.147779567343804 3.659111826937526)"><path d="M0 0 L18.3 0 L18.3 7.32 L0 7.32" stroke="none" stroke-width="0" fill="#CECDCC"/><path d="M0 0 C4.51 0, 9.02 0, 18.3 0 M0 0 C6.81 0, 13.62 0, 18.3 0 M18.3 0 C18.3 2.77, 18.3 5.55, 18.3 7.32 M18.3 0 C18.3 2.56, 18.3 5.12, 18.3 7.32 M18.3 7.32 C13.68 7.32, 9.06 7.32, 0 7.32 M18.3 7.32 C13.83 7.32, 9.36 7.32, 0 7.32 M0 7.32 C0 5.07, 0 2.82, 0 0 M0 7.32 C0 5.4, 0 3.48, 0 0" stroke="black" stroke-width="1" fill="none"/></g><g stroke-linecap="round" transform="translate(157.42606382466107 79.91834078687143) rotate(0 23.784226875093907 10.97733548081257)"><path d="M0 0 L47.57 0 L47.57 21.95 L0 21.95" stroke="none" stroke-width="0" fill="#AF9178"/><path d="M0 0 C14.38 0, 28.75 0, 47.57 0 M0 0 C10.78 0, 21.56 0, 47.57 0 M47.57 0 C47.57 7.06, 47.57 14.13, 47.57 21.95 M47.57 0 C47.57 6.98, 47.57 13.96, 47.57 21.95 M47.57 21.95 C35.9 21.95, 24.24 21.95, 0 21.95 M47.57 21.95 C34.84 21.95, 22.12 21.95, 0 21.95 M0 21.95 C0 16.96, 0 11.97, 0 0 M0 21.95 C0 17.37, 0 12.78, 0 0" stroke="black" stroke-width="1" fill="none"/></g><g stroke-linecap="round" transform="translate(172.0625111324112 87.23656444074649) rotate(0 9.147779567343804 3.6591118269375187)"><path d="M0 0 L18.3 0 L18.3 7.32 L0 7.32" stroke="none" stroke-width="0" fill="#CECDCC"/><path d="M0 0 C5.74 0, 11.49 0, 18.3 0 M0 0 C7.14 0, 14.29 0, 18.3 0 M18.3 0 C18.3 1.87, 18.3 3.73, 18.3 7.32 M18.3 0 C18.3 2.83, 18.3 5.65, 18.3 7.32 M18.3 7.32 C11.34 7.32, 4.38 7.32, 0 7.32 M18.3 7.32 C12.97 7.32, 7.64 7.32, 0 7.32 M0 7.32 C0 5.07, 0 2.82, 0 0 M0 7.32 C0 4.93, 0 2.54, 0 0" stroke="black" stroke-width="1" fill="none"/></g><g stroke-linecap="round" transform="translate(13.57803385186017 101.69777381249204) rotate(0 23.78422687509391 10.97733548081257)"><path d="M0 0 L47.57 0 L47.57 21.95 L0 21.95" stroke="none" stroke-width="0" fill="#AF9178"/><path d="M0 0 C17.03 0, 34.06 0, 47.57 0 M0 0 C18.91 0, 37.83 0, 47.57 0 M47.57 0 C47.57 7.11, 47.57 14.22, 47.57 21.95 M47.57 0 C47.57 6.81, 47.57 13.62, 47.57 21.95 M47.57 21.95 C32.45 21.95, 17.32 21.95, 0 21.95 M47.57 21.95 C36.75 21.95, 25.94 21.95, 0 21.95 M0 21.95 C0 13.86, 0 5.76, 0 0 M0 21.95 C0 15.56, 0 9.16, 0 0" stroke="black" stroke-width="1" fill="none"/></g><g stroke-linecap="round" transform="translate(28.21448115961121 109.01599746636711) rotate(0 9.147779567343811 3.659111826937526)"><path d="M0 0 L18.3 0 L18.3 7.32 L0 7.32" stroke="none" stroke-width="0" fill="#CECDCC"/><path d="M0 0 C4.05 0, 8.1 0, 18.3 0 M0 0 C4.32 0, 8.64 0, 18.3 0 M18.3 0 C18.3 1.55, 18.3 3.11, 18.3 7.32 M18.3 0 C18.3 2.9, 18.3 5.8, 18.3 7.32 M18.3 7.32 C12.81 7.32, 7.33 7.32, 0 7.32 M18.3 7.32 C11.64 7.32, 4.98 7.32, 0 7.32 M0 7.32 C0 5.85, 0 4.38, 0 0 M0 7.32 C0 5.09, 0 2.87, 0 0" stroke="black" stroke-width="1" fill="none"/></g><g stroke-linecap="round" transform="translate(65.21874255620278 61.44754371617918) rotate(0 20.12511504815638 3.6591118269375187)"><path d="M0 0 L40.25 0 L40.25 7.32 L0 7.32" stroke="none" stroke-width="0" fill="black"/><path d="M0 0 C15.12 0, 30.25 0, 40.25 0 M0 0 C13.15 0, 26.3 0, 40.25 0 M40.25 0 C40.25 2.14, 40.25 4.27, 40.25 7.32 M40.25 0 C40.25 2.1, 40.25 4.19, 40.25 7.32 M40.25 7.32 C30.38 7.32, 20.5 7.32, 0 7.32 M40.25 7.32 C25.73 7.32, 11.21 7.32, 0 7.32 M0 7.32 C0 4.63, 0 1.95, 0 0 M0 7.32 C0 5.69, 0 4.07, 0 0" stroke="black" stroke-width="1" fill="none"/></g><g stroke-linecap="round" transform="translate(61.559630729265706 35.83376092761645) rotate(0 23.784226875093914 10.97733548081257)"><path d="M0 0 L47.57 0 L47.57 21.95 L0 21.95" stroke="none" stroke-width="0" fill="#AF9178"/><path d="M0 0 C13.21 0, 26.41 0, 47.57 0 M0 0 C9.68 0, 19.37 0, 47.57 0 M47.57 0 C47.57 8.37, 47.57 16.73, 47.57 21.95 M47.57 0 C47.57 8.36, 47.57 16.72, 47.57 21.95 M47.57 21.95 C31.91 21.95, 16.24 21.95, 0 21.95 M47.57 21.95 C30.63 21.95, 13.69 21.95, 0 21.95 M0 21.95 C0 14.03, 0 6.11, 0 0 M0 21.95 C0 16.15, 0 10.34, 0 0" stroke="black" stroke-width="1" fill="none"/></g><g stroke-linecap="round" transform="translate(76.19607803701493 43.15198458149152) rotate(0 9.147779567343811 3.6591118269375187)"><path d="M0 0 L18.3 0 L18.3 7.32 L0 7.32" stroke="none" stroke-width="0" fill="#CECDCC"/><path d="M0 0 C3.88 0, 7.77 0, 18.3 0 M0 0 C5.54 0, 11.08 0, 18.3 0 M18.3 0 C18.3 2.38, 18.3 4.76, 18.3 7.32 M18.3 0 C18.3 1.75, 18.3 3.5, 18.3 7.32 M18.3 7.32 C13.67 7.32, 9.04 7.32, 0 7.32 M18.3 7.32 C12.28 7.32, 6.27 7.32, 0 7.32 M0 7.32 C0 4.7, 0 2.09, 0 0 M0 7.32 C0 4.41, 0 1.51, 0 0" stroke="black" stroke-width="1" fill="none"/></g><g stroke-linecap="round" transform="translate(61.559630729265706 79.74310285086685) rotate(0 23.784226875093914 10.97733548081257)"><path d="M0 0 L47.57 0 L47.57 21.95 L0 21.95" stroke="none" stroke-width="0" fill="#AF9178"/><path d="M0 0 C14.06 0, 28.11 0, 47.57 0 M0 0 C12.98 0, 25.96 0, 47.57 0 M47.57 0 C47.57 6.44, 47.57 12.88, 47.57 21.95 M47.57 0 C47.57 8.38, 47.57 16.76, 47.57 21.95 M47.57 21.95 C29.25 21.95, 10.94 21.95, 0 21.95 M47.57 21.95 C35.48 21.95, 23.4 21.95, 0 21.95 M0 21.95 C0 16.41, 0 10.87, 0 0 M0 21.95 C0 14.84, 0 7.72, 0 0" stroke="black" stroke-width="1" fill="none"/></g><g stroke-linecap="round" transform="translate(76.19607803701493 87.06132650474191) rotate(0 9.147779567343811 3.6591118269375187)"><path d="M0 0 L18.3 0 L18.3 7.32 L0 7.32" stroke="none" stroke-width="0" fill="#CECDCC"/><path d="M0 0 C3.9 0, 7.8 0, 18.3 0 M0 0 C6.63 0, 13.26 0, 18.3 0 M18.3 0 C18.3 1.93, 18.3 3.86, 18.3 7.32 M18.3 0 C18.3 1.49, 18.3 2.99, 18.3 7.32 M18.3 7.32 C13.52 7.32, 8.75 7.32, 0 7.32 M18.3 7.32 C14.03 7.32, 9.77 7.32, 0 7.32 M0 7.32 C0 5.67, 0 4.02, 0 0 M0 7.32 C0 4.77, 0 2.22, 0 0" stroke="black" stroke-width="1" fill="none"/></g><g stroke-linecap="round" transform="translate(13.57803385186017 13.894412972673564) rotate(0 23.78422687509391 10.97733548081257)"><path d="M0 0 L47.57 0 L47.57 21.95 L0 21.95" stroke="none" stroke-width="0" fill="#AF9178"/><path d="M0 0 C13.39 0, 26.78 0, 47.57 0 M0 0 C17.56 0, 35.12 0, 47.57 0 M47.57 0 C47.57 5.95, 47.57 11.9, 47.57 21.95 M47.57 0 C47.57 5.22, 47.57 10.43, 47.57 21.95 M47.57 21.95 C34.7 21.95, 21.84 21.95, 0 21.95 M47.57 21.95 C28.77 21.95, 9.97 21.95, 0 21.95 M0 21.95 C0 16.98, 0 12.01, 0 0 M0 21.95 C0 17.5, 0 13.04, 0 0" stroke="black" stroke-width="1" fill="none"/></g><g stroke-linecap="round" transform="translate(28.2144811596103 21.212636626548857) rotate(0 9.147779567343811 3.6591118269375187)"><path d="M0 0 L18.3 0 L18.3 7.32 L0 7.32" stroke="none" stroke-width="0" fill="#CECDCC"/><path d="M0 0 C6.81 0, 13.62 0, 18.3 0 M0 0 C6.93 0, 13.87 0, 18.3 0 M18.3 0 C18.3 2.56, 18.3 5.12, 18.3 7.32 M18.3 0 C18.3 1.85, 18.3 3.69, 18.3 7.32 M18.3 7.32 C13.83 7.32, 9.36 7.32, 0 7.32 M18.3 7.32 C12.68 7.32, 7.05 7.32, 0 7.32 M0 7.32 C0 5.4, 0 3.48, 0 0 M0 7.32 C0 4.83, 0 2.35, 0 0" stroke="black" stroke-width="1" fill="none"/></g><g stroke-linecap="round" transform="translate(109.32454717830788 57.78843188924165) rotate(0 23.784226875093914 10.97733548081257)"><path d="M0 0 L47.57 0 L47.57 21.95 L0 21.95" stroke="none" stroke-width="0" fill="#AF9178"/><path d="M0 0 C10.78 0, 21.56 0, 47.57 0 M0 0 C15.3 0, 30.61 0, 47.57 0 M47.57 0 C47.57 6.98, 47.57 13.96, 47.57 21.95 M47.57 0 C47.57 5.38, 47.57 10.77, 47.57 21.95 M47.57 21.95 C34.84 21.95, 22.12 21.95, 0 21.95 M47.57 21.95 C36.75 21.95, 25.94 21.95, 0 21.95 M0 21.95 C0 17.37, 0 12.78, 0 0 M0 21.95 C0 15.7, 0 9.45, 0 0" stroke="black" stroke-width="1" fill="none"/></g><g stroke-linecap="round" transform="translate(123.9609944860571 65.10665554311672) rotate(0 9.147779567343811 3.6591118269375187)"><path d="M0 0 L18.3 0 L18.3 7.32 L0 7.32" stroke="none" stroke-width="0" fill="#CECDCC"/><path d="M0 0 C7.14 0, 14.29 0, 18.3 0 M0 0 C4.67 0, 9.34 0, 18.3 0 M18.3 0 C18.3 2.83, 18.3 5.65, 18.3 7.32 M18.3 0 C18.3 2.78, 18.3 5.56, 18.3 7.32 M18.3 7.32 C12.97 7.32, 7.64 7.32, 0 7.32 M18.3 7.32 C12.68 7.32, 7.06 7.32, 0 7.32 M0 7.32 C0 4.93, 0 2.54, 0 0 M0 7.32 C0 5.49, 0 3.66, 0 0" stroke="black" stroke-width="1" fill="none"/></g><g stroke-linecap="round" transform="translate(109.32454717830788 79.74310285086685) rotate(0 23.784226875093914 10.97733548081257)"><path d="M0 0 L47.57 0 L47.57 21.95 L0 21.95" stroke="none" stroke-width="0" fill="#AF9178"/><path d="M0 0 C18.91 0, 37.83 0, 47.57 0 M0 0 C15.41 0, 30.81 0, 47.57 0 M47.57 0 C47.57 6.81, 47.57 13.62, 47.57 21.95 M47.57 0 C47.57 6.98, 47.57 13.96, 47.57 21.95 M47.57 21.95 C36.75 21.95, 25.94 21.95, 0 21.95 M47.57 21.95 C30.03 21.95, 12.48 21.95, 0 21.95 M0 21.95 C0 15.56, 0 9.16, 0 0 M0 21.95 C0 13.68, 0 5.41, 0 0" stroke="black" stroke-width="1" fill="none"/></g><g stroke-linecap="round" transform="translate(123.9609944860571 87.06132650474191) rotate(0 9.147779567343811 3.6591118269375187)"><path d="M0 0 L18.3 0 L18.3 7.32 L0 7.32" stroke="none" stroke-width="0" fill="#CECDCC"/><path d="M0 0 C4.32 0, 8.64 0, 18.3 0 M0 0 C3.88 0, 7.76 0, 18.3 0 M18.3 0 C18.3 2.9, 18.3 5.8, 18.3 7.32 M18.3 0 C18.3 2.19, 18.3 4.38, 18.3 7.32 M18.3 7.32 C11.64 7.32, 4.98 7.32, 0 7.32 M18.3 7.32 C14.62 7.32, 10.94 7.32, 0 7.32 M0 7.32 C0 5.09, 0 2.87, 0 0 M0 7.32 C0 4.61, 0 1.9, 0 0" stroke="black" stroke-width="1" fill="none"/></g><g stroke-linecap="round" transform="translate(109.32454717830788 13.894412972673564) rotate(0 23.784226875093914 10.97733548081257)"><path d="M0 0 L47.57 0 L47.57 21.95 L0 21.95" stroke="none" stroke-width="0" fill="#AF9178"/><path d="M0 0 C15.54 0, 31.08 0, 47.57 0 M0 0 C13.89 0, 27.78 0, 47.57 0 M47.57 0 C47.57 6.29, 47.57 12.58, 47.57 21.95 M47.57 0 C47.57 5.39, 47.57 10.77, 47.57 21.95 M47.57 21.95 C30.41 21.95, 13.25 21.95, 0 21.95 M47.57 21.95 C30.12 21.95, 12.68 21.95, 0 21.95 M0 21.95 C0 17.08, 0 12.2, 0 0 M0 21.95 C0 13.87, 0 5.8, 0 0" stroke="black" stroke-width="1" fill="none"/></g><g stroke-linecap="round" transform="translate(123.9609944860571 21.212636626548857) rotate(0 9.147779567343811 3.6591118269375187)"><path d="M0 0 L18.3 0 L18.3 7.32 L0 7.32" stroke="none" stroke-width="0" fill="#CECDCC"/><path d="M0 0 C3.72 0, 7.45 0, 18.3 0 M0 0 C6.97 0, 13.94 0, 18.3 0 M18.3 0 C18.3 2.79, 18.3 5.57, 18.3 7.32 M18.3 0 C18.3 2.41, 18.3 4.82, 18.3 7.32 M18.3 7.32 C11.78 7.32, 5.27 7.32, 0 7.32 M18.3 7.32 C11.69 7.32, 5.09 7.32, 0 7.32 M0 7.32 C0 5.38, 0 3.45, 0 0 M0 7.32 C0 5.19, 0 3.05, 0 0" stroke="black" stroke-width="1" fill="none"/></g><g stroke-linecap="round" transform="translate(157.42606382466107 57.910364848805415) rotate(0 23.784226875093907 10.97733548081257)"><path d="M0 0 L47.57 0 L47.57 21.95 L0 21.95" stroke="none" stroke-width="0" fill="#AF9178"/><path d="M0 0 C14.41 0, 28.82 0, 47.57 0 M0 0 C15.46 0, 30.91 0, 47.57 0 M47.57 0 C47.57 5.25, 47.57 10.5, 47.57 21.95 M47.57 0 C47.57 5.55, 47.57 11.1, 47.57 21.95 M47.57 21.95 C31.94 21.95, 16.31 21.95, 0 21.95 M47.57 21.95 C30.56 21.95, 13.56 21.95, 0 21.95 M0 21.95 C0 13.24, 0 4.53, 0 0 M0 21.95 C0 13.39, 0 4.82, 0 0" stroke="black" stroke-width="1" fill="none"/></g><g stroke-linecap="round" transform="translate(172.0625111324103 65.22858850268094) rotate(0 9.147779567343804 3.6591118269375187)"><path d="M0 0 L18.3 0 L18.3 7.32 L0 7.32" stroke="none" stroke-width="0" fill="#CECDCC"/><path d="M0 0 C4.99 0, 9.99 0, 18.3 0 M0 0 C5.37 0, 10.73 0, 18.3 0 M18.3 0 C18.3 2.79, 18.3 5.59, 18.3 7.32 M18.3 0 C18.3 2.82, 18.3 5.64, 18.3 7.32 M18.3 7.32 C13.65 7.32, 9 7.32, 0 7.32 M18.3 7.32 C13.68 7.32, 9.06 7.32, 0 7.32 M0 7.32 C0 4.95, 0 2.57, 0 0 M0 7.32 C0 5.16, 0 3, 0 0" stroke="black" stroke-width="1" fill="none"/></g><g stroke-linecap="round" transform="translate(61.559630729265706 13.894412972673564) rotate(0 23.784226875093914 10.97733548081257)"><path d="M0 0 L47.57 0 L47.57 21.95 L0 21.95" stroke="none" stroke-width="0" fill="#AF9178"/><path d="M0 0 C17.24 0, 34.48 0, 47.57 0 M0 0 C12.53 0, 25.07 0, 47.57 0 M47.57 0 C47.57 4.48, 47.57 8.96, 47.57 21.95 M47.57 0 C47.57 5.73, 47.57 11.46, 47.57 21.95 M47.57 21.95 C36.49 21.95, 25.41 21.95, 0 21.95 M47.57 21.95 C36.85 21.95, 26.13 21.95, 0 21.95 M0 21.95 C0 14.3, 0 6.65, 0 0 M0 21.95 C0 15.89, 0 9.83, 0 0" stroke="black" stroke-width="1" fill="none"/></g><g stroke-linecap="round" transform="translate(76.19607803701584 21.212636626548857) rotate(0 9.147779567343811 3.6591118269375187)"><path d="M0 0 L18.3 0 L18.3 7.32 L0 7.32" stroke="none" stroke-width="0" fill="hsl(0, 0%, 77%)"/><path d="M0 0 C6.75 0, 13.51 0, 18.3 0 M0 0 C4.96 0, 9.91 0, 18.3 0 M18.3 0 C18.3 1.74, 18.3 3.48, 18.3 7.32 M18.3 0 C18.3 1.98, 18.3 3.96, 18.3 7.32 M18.3 7.32 C11.07 7.32, 3.84 7.32, 0 7.32 M18.3 7.32 C14.15 7.32, 10.01 7.32, 0 7.32 M0 7.32 C0 5.83, 0 4.35, 0 0 M0 7.32 C0 5.53, 0 3.74, 0 0" stroke="black" stroke-width="1" fill="none"/></g><g stroke-linecap="round" transform="translate(157.42606382466107 35.902388910739404) rotate(0 23.784226875093907 10.97733548081257)"><path d="M0 0 L47.57 0 L47.57 21.95 L0 21.95" stroke="none" stroke-width="0" fill="#AF9178"/><path d="M0 0 C18.03 0, 36.06 0, 47.57 0 M0 0 C16.64 0, 33.27 0, 47.57 0 M47.57 0 C47.57 5.54, 47.57 11.08, 47.57 21.95 M47.57 0 C47.57 5.36, 47.57 10.72, 47.57 21.95 M47.57 21.95 C32.96 21.95, 18.34 21.95, 0 21.95 M47.57 21.95 C35.1 21.95, 22.63 21.95, 0 21.95 M0 21.95 C0 14.5, 0 7.05, 0 0 M0 21.95 C0 14.96, 0 7.96, 0 0" stroke="black" stroke-width="1" fill="none"/></g><g stroke-linecap="round" transform="translate(172.0625111324112 43.22061256461447) rotate(0 9.147779567343804 3.6591118269375187)"><path d="M0 0 L18.3 0 L18.3 7.32 L0 7.32" stroke="none" stroke-width="0" fill="hsl(0, 0%, 77%)"/><path d="M0 0 C5.89 0, 11.77 0, 18.3 0 M0 0 C5.82 0, 11.63 0, 18.3 0 M18.3 0 C18.3 1.79, 18.3 3.59, 18.3 7.32 M18.3 0 C18.3 1.96, 18.3 3.92, 18.3 7.32 M18.3 7.32 C14.14 7.32, 9.98 7.32, 0 7.32 M18.3 7.32 C14.47 7.32, 10.65 7.32, 0 7.32 M0 7.32 C0 5.23, 0 3.15, 0 0 M0 7.32 C0 4.58, 0 1.84, 0 0" stroke="black" stroke-width="1" fill="none"/></g><g stroke-linecap="round" transform="translate(157.42606382466107 13.894412972673564) rotate(0 23.784226875093907 10.97733548081257)"><path d="M0 0 L47.57 0 L47.57 21.95 L0 21.95" stroke="none" stroke-width="0" fill="#AF9178"/><path d="M0 0 C12.14 0, 24.28 0, 47.57 0 M0 0 C18.38 0, 36.75 0, 47.57 0 M47.57 0 C47.57 8.35, 47.57 16.69, 47.57 21.95 M47.57 0 C47.57 6.4, 47.57 12.79, 47.57 21.95 M47.57 21.95 C32.96 21.95, 18.35 21.95, 0 21.95 M47.57 21.95 C32.03 21.95, 16.5 21.95, 0 21.95 M0 21.95 C0 16.47, 0 10.99, 0 0 M0 21.95 C0 14.67, 0 7.39, 0 0" stroke="black" stroke-width="1" fill="none"/></g><g stroke-linecap="round" transform="translate(172.0625111324112 21.212636626548857) rotate(0 9.147779567343804 3.6591118269375187)"><path d="M0 0 L18.3 0 L18.3 7.32 L0 7.32" stroke="none" stroke-width="0" fill="hsl(0, 0%, 77%)"/><path d="M0 0 C5.93 0, 11.85 0, 18.3 0 M0 0 C5.68 0, 11.35 0, 18.3 0 M18.3 0 C18.3 2.33, 18.3 4.65, 18.3 7.32 M18.3 0 C18.3 1.66, 18.3 3.33, 18.3 7.32 M18.3 7.32 C11.55 7.32, 4.8 7.32, 0 7.32 M18.3 7.32 C12.97 7.32, 7.64 7.32, 0 7.32 M0 7.32 C0 4.56, 0 1.8, 0 0 M0 7.32 C0 4.51, 0 1.7, 0 0" stroke="black" stroke-width="1" fill="none"/></g><g stroke-linecap="round" transform="translate(13.57803385186017 35.84525318262794) rotate(0 23.78422687509391 10.97733548081257)"><path d="M0 0 L47.57 0 L47.57 21.95 L0 21.95" stroke="none" stroke-width="0" fill="#AF9178"/><path d="M0 0 C10.09 0, 20.19 0, 47.57 0 M0 0 C18.83 0, 37.67 0, 47.57 0 M47.57 0 C47.57 6.58, 47.57 13.15, 47.57 21.95 M47.57 0 C47.57 7.99, 47.57 15.98, 47.57 21.95 M47.57 21.95 C38.01 21.95, 28.45 21.95, 0 21.95 M47.57 21.95 C33.12 21.95, 18.66 21.95, 0 21.95 M0 21.95 C0 13.83, 0 5.7, 0 0 M0 21.95 C0 17.39, 0 12.83, 0 0" stroke="black" stroke-width="1" fill="none"/></g><g stroke-linecap="round" transform="translate(28.21448115961121 43.16347683650346) rotate(0 9.147779567343811 3.6591118269375187)"><path d="M0 0 L18.3 0 L18.3 7.32 L0 7.32" stroke="none" stroke-width="0" fill="#CECDCC"/><path d="M0 0 C5.34 0, 10.68 0, 18.3 0 M0 0 C5.24 0, 10.48 0, 18.3 0 M18.3 0 C18.3 1.8, 18.3 3.59, 18.3 7.32 M18.3 0 C18.3 2.64, 18.3 5.28, 18.3 7.32 M18.3 7.32 C11.59 7.32, 4.88 7.32, 0 7.32 M18.3 7.32 C14.23 7.32, 10.17 7.32, 0 7.32 M0 7.32 C0 4.62, 0 1.93, 0 0 M0 7.32 C0 5.68, 0 4.05, 0 0" stroke="black" stroke-width="1" fill="none"/></g><g stroke-linecap="round" transform="translate(13.57803385186017 57.79609339258295) rotate(0 23.78422687509391 10.97733548081257)"><path d="M0 0 L47.57 0 L47.57 21.95 L0 21.95" stroke="none" stroke-width="0" fill="#AF9178"/><path d="M0 0 C18.13 0, 36.26 0, 47.57 0 M0 0 C18.11 0, 36.23 0, 47.57 0 M47.57 0 C47.57 7.23, 47.57 14.46, 47.57 21.95 M47.57 0 C47.57 7.82, 47.57 15.64, 47.57 21.95 M47.57 21.95 C30.4 21.95, 13.24 21.95, 0 21.95 M47.57 21.95 C34.99 21.95, 22.41 21.95, 0 21.95 M0 21.95 C0 15.56, 0 9.16, 0 0 M0 21.95 C0 13.65, 0 5.35, 0 0" stroke="black" stroke-width="1" fill="none"/></g><g stroke-linecap="round" transform="translate(28.21448115961121 65.11431704645801) rotate(0 9.147779567343811 3.6591118269375187)"><path d="M0 0 L18.3 0 L18.3 7.32 L0 7.32" stroke="none" stroke-width="0" fill="#CECDCC"/><path d="M0 0 C5.94 0, 11.89 0, 18.3 0 M0 0 C4.37 0, 8.75 0, 18.3 0 M18.3 0 C18.3 1.85, 18.3 3.7, 18.3 7.32 M18.3 0 C18.3 2.4, 18.3 4.81, 18.3 7.32 M18.3 7.32 C11.76 7.32, 5.22 7.32, 0 7.32 M18.3 7.32 C11.04 7.32, 3.78 7.32, 0 7.32 M0 7.32 C0 4.46, 0 1.61, 0 0 M0 7.32 C0 4.47, 0 1.62, 0 0" stroke="black" stroke-width="1" fill="none"/></g><g stroke-linecap="round" transform="translate(13.57803385186017 79.7469336025375) rotate(0 23.78422687509391 10.97733548081257)"><path d="M0 0 L47.57 0 L47.57 21.95 L0 21.95" stroke="none" stroke-width="0" fill="#AF9178"/><path d="M0 0 C13.95 0, 27.9 0, 47.57 0 M0 0 C18.16 0, 36.31 0, 47.57 0 M47.57 0 C47.57 8.45, 47.57 16.91, 47.57 21.95 M47.57 0 C47.57 5.58, 47.57 11.16, 47.57 21.95 M47.57 21.95 C35.56 21.95, 23.55 21.95, 0 21.95 M47.57 21.95 C32.15 21.95, 16.73 21.95, 0 21.95 M0 21.95 C0 15.48, 0 9, 0 0 M0 21.95 C0 13.77, 0 5.59, 0 0" stroke="black" stroke-width="1" fill="none"/></g><g stroke-linecap="round" transform="translate(28.21448115961121 87.06515725641256) rotate(0 9.147779567343811 3.6591118269375187)"><path d="M0 0 L18.3 0 L18.3 7.32 L0 7.32" stroke="none" stroke-width="0" fill="#CECDCC"/><path d="M0 0 C4.82 0, 9.64 0, 18.3 0 M0 0 C3.73 0, 7.47 0, 18.3 0 M18.3 0 C18.3 1.91, 18.3 3.82, 18.3 7.32 M18.3 0 C18.3 1.7, 18.3 3.41, 18.3 7.32 M18.3 7.32 C14.17 7.32, 10.05 7.32, 0 7.32 M18.3 7.32 C11.92 7.32, 5.54 7.32, 0 7.32 M0 7.32 C0 5.3, 0 3.28, 0 0 M0 7.32 C0 5.04, 0 2.75, 0 0" stroke="black" stroke-width="1" fill="none"/></g><g stroke-linecap="round" transform="translate(60.34205850475465 68.76576737005425) rotate(0 25.001799099604703 11.539291892125249)"><path d="M0 0 L50 0 L50 23.08 L0 23.08" stroke="none" stroke-width="0" fill="#AF9178"/><path d="M0 0 C13.55 0, 27.1 0, 50 0 M0 0 C11.88 0, 23.77 0, 50 0 M50 0 C50 6.24, 50 12.48, 50 23.08 M50 0 C50 9.12, 50 18.24, 50 23.08 M50 23.08 C38.67 23.08, 27.34 23.08, 0 23.08 M50 23.08 C39.85 23.08, 29.7 23.08, 0 23.08 M0 23.08 C0 17.44, 0 11.81, 0 0 M0 23.08 C0 16.65, 0 10.22, 0 0" stroke="black" stroke-width="1" fill="none"/></g><g stroke-linecap="round" transform="translate(75.72778102758676 76.45862863147121) rotate(0 9.616076576771036 3.8464306307084115)"><path d="M0 0 L19.23 0 L19.23 7.69 L0 7.69" stroke="none" stroke-width="0" fill="#CECDCC"/><path d="M0 0 C6.73 0, 13.45 0, 19.23 0 M0 0 C4.85 0, 9.71 0, 19.23 0 M19.23 0 C19.23 1.88, 19.23 3.76, 19.23 7.69 M19.23 0 C19.23 2.36, 19.23 4.73, 19.23 7.69 M19.23 7.69 C14.19 7.69, 9.15 7.69, 0 7.69 M19.23 7.69 C12.71 7.69, 6.18 7.69, 0 7.69 M0 7.69 C0 5.24, 0 2.79, 0 0 M0 7.69 C0 5.8, 0 3.9, 0 0" stroke="black" stroke-width="1" fill="none"/></g><g stroke-linecap="round"><g transform="translate(65.21874255620278 68.76576737005425) rotate(0 20.125115048156385 -5.488667740406285)" fill-rule="evenodd"><path d="M0 0 L0 -7.32 L40.25 -7.32 L40.25 0 L43.91 0 L43.91 -10.98 L-3.66 -10.98 L-3.66 0 L0 0" stroke="none" stroke-width="0" fill="#755941" fill-rule="evenodd"/><path d="M0 0 C0 -2.33, 0 -4.65, 0 -7.32 M0 0 C0 -1.79, 0 -3.59, 0 -7.32 M0 -7.32 C10.77 -7.32, 21.54 -7.32, 40.25 -7.32 M0 -7.32 C9.15 -7.32, 18.3 -7.32, 40.25 -7.32 M40.25 -7.32 C40.25 -5.79, 40.25 -4.26, 40.25 0 M40.25 -7.32 C40.25 -5.23, 40.25 -3.15, 40.25 0 M40.25 0 C41.62 0, 42.99 0, 43.91 0 M40.25 0 C41.35 0, 42.44 0, 43.91 0 M43.91 0 C43.91 -2.65, 43.91 -5.31, 43.91 -10.98 M43.91 0 C43.91 -3.54, 43.91 -7.08, 43.91 -10.98 M43.91 -10.98 C25.78 -10.98, 7.64 -10.98, -3.66 -10.98 M43.91 -10.98 C26.06 -10.98, 8.22 -10.98, -3.66 -10.98 M-3.66 -10.98 C-3.66 -8.75, -3.66 -6.53, -3.66 0 M-3.66 -10.98 C-3.66 -7.08, -3.66 -3.19, -3.66 0 M-3.66 0 C-2.92 0, -2.18 0, 0 0 M-3.66 0 C-2.8 0, -1.93 0, 0 0 M0 0 C0 0, 0 0, 0 0 M0 0 C0 0, 0 0, 0 0" stroke="black" stroke-width="1" fill="none"/></g></g><g stroke-linecap="round" transform="translate(71.80269833748699 63.115912634959926) rotate(0 13.541159266872697 2.667198037414323)"><path d="M0 0 L27.08 0 L27.08 5.33 L0 5.33" stroke="none" stroke-width="0" fill="#E6D2C1"/><path d="M0 0 C10.46 0, 20.92 0, 27.08 0 M0 0 C10.3 0, 20.59 0, 27.08 0 M27.08 0 C27.08 1.55, 27.08 3.11, 27.08 5.33 M27.08 0 C27.08 1.64, 27.08 3.28, 27.08 5.33 M27.08 5.33 C18.24 5.33, 9.39 5.33, 0 5.33 M27.08 5.33 C20.32 5.33, 13.56 5.33, 0 5.33 M0 5.33 C0 3.56, 0 1.79, 0 0 M0 5.33 C0 3.92, 0 2.51, 0 0" stroke="black" stroke-width="1" fill="none"/></g><g stroke-linecap="round" transform="translate(68.16094717101751 64.75726527336846) rotate(0 17.18291043334225 1.8465217182099138)"><path d="M0 0 L34.37 0 L34.37 3.69 L0 3.69" stroke="none" stroke-width="0" fill="#E6D2C1"/><path d="M0 0 C10.66 0, 21.32 0, 34.37 0 M0 0 C10.93 0, 21.85 0, 34.37 0 M34.37 0 C34.37 0.84, 34.37 1.68, 34.37 3.69 M34.37 0 C34.37 1.36, 34.37 2.72, 34.37 3.69 M34.37 3.69 C24.36 3.69, 14.34 3.69, 0 3.69 M34.37 3.69 C21.42 3.69, 8.48 3.69, 0 3.69 M0 3.69 C0 2.28, 0 0.86, 0 0 M0 3.69 C0 2.89, 0 2.09, 0 0" stroke="black" stroke-width="1" fill="none"/></g><g stroke-linecap="round" transform="translate(63.9549810350949 66.60378699157863) rotate(0 21.38887656926483 0.9745531290552378)"><path d="M0 0 L42.78 0 L42.78 1.95 L0 1.95" stroke="none" stroke-width="0" fill="#E6D2C1"/><path d="M0 0 C16.94 0, 33.87 0, 42.78 0 M0 0 C12.82 0, 25.63 0, 42.78 0 M42.78 0 C42.78 0.71, 42.78 1.42, 42.78 1.95 M42.78 0 C42.78 0.39, 42.78 0.78, 42.78 1.95 M42.78 1.95 C29.78 1.95, 16.78 1.95, 0 1.95 M42.78 1.95 C26.94 1.95, 11.11 1.95, 0 1.95 M0 1.95 C0 1.54, 0 1.14, 0 0 M0 1.95 C0 1.28, 0 0.61, 0 0" stroke="black" stroke-width="1" fill="none"/></g><g stroke-linecap="round" transform="translate(112.651593853106 39.94711581658393) rotate(0 20.12511504815638 3.6591118269375187)"><path d="M0 0 L40.25 0 L40.25 7.32 L0 7.32" stroke="none" stroke-width="0" fill="black"/><path d="M0 0 C11.53 0, 23.07 0, 40.25 0 M0 0 C9.88 0, 19.75 0, 40.25 0 M40.25 0 C40.25 2.64, 40.25 5.28, 40.25 7.32 M40.25 0 C40.25 2.68, 40.25 5.37, 40.25 7.32 M40.25 7.32 C31.31 7.32, 22.37 7.32, 0 7.32 M40.25 7.32 C25.44 7.32, 10.62 7.32, 0 7.32 M0 7.32 C0 5.68, 0 4.05, 0 0 M0 7.32 C0 4.79, 0 2.27, 0 0" stroke="black" stroke-width="1" fill="none"/></g><g stroke-linecap="round" transform="translate(108.10697495379682 47.265339470459) rotate(0 25.001799099604703 11.539291892125249)"><path d="M0 0 L50 0 L50 23.08 L0 23.08" stroke="none" stroke-width="0" fill="#AF9178"/><path d="M0 0 C19.04 0, 38.08 0, 50 0 M0 0 C16.46 0, 32.93 0, 50 0 M50 0 C50 8.22, 50 16.44, 50 23.08 M50 0 C50 8.33, 50 16.66, 50 23.08 M50 23.08 C36.78 23.08, 23.56 23.08, 0 23.08 M50 23.08 C35.43 23.08, 20.86 23.08, 0 23.08 M0 23.08 C0 14.35, 0 5.63, 0 0 M0 23.08 C0 14.77, 0 6.46, 0 0" stroke="black" stroke-width="1" fill="none"/></g><g stroke-linecap="round" transform="translate(123.49269747662984 54.95820073187596) rotate(0 9.616076576771043 3.8464306307084115)"><path d="M0 0 L19.23 0 L19.23 7.69 L0 7.69" stroke="none" stroke-width="0" fill="#CECDCC"/><path d="M0 0 C4.6 0, 9.2 0, 19.23 0 M0 0 C4.86 0, 9.73 0, 19.23 0 M19.23 0 C19.23 2.53, 19.23 5.06, 19.23 7.69 M19.23 0 C19.23 2.75, 19.23 5.5, 19.23 7.69 M19.23 7.69 C11.6 7.69, 3.97 7.69, 0 7.69 M19.23 7.69 C11.73 7.69, 4.22 7.69, 0 7.69 M0 7.69 C0 4.7, 0 1.7, 0 0 M0 7.69 C0 4.64, 0 1.6, 0 0" stroke="black" stroke-width="1" fill="none"/></g><g stroke-linecap="round"><g transform="translate(112.651593853106 47.265339470459) rotate(0 20.12511504815639 -5.488667740406285)" fill-rule="evenodd"><path d="M0 0 L0 -7.32 L40.25 -7.32 L40.25 0 L43.91 0 L43.91 -10.98 L-3.66 -10.98 L-3.66 0 L0 0" stroke="none" stroke-width="0" fill="#755941" fill-rule="evenodd"/><path d="M0 0 C0 -2.79, 0 -5.59, 0 -7.32 M0 0 C0 -2.82, 0 -5.64, 0 -7.32 M0 -7.32 C10.23 -7.32, 20.45 -7.32, 40.25 -7.32 M0 -7.32 C10.16 -7.32, 20.33 -7.32, 40.25 -7.32 M40.25 -7.32 C40.25 -4.95, 40.25 -2.57, 40.25 0 M40.25 -7.32 C40.25 -5.16, 40.25 -3, 40.25 0 M40.25 0 C41.61 0, 42.98 0, 43.91 0 M40.25 0 C41.63 0, 43 0, 43.91 0 M43.91 0 C43.91 -2.52, 43.91 -5.05, 43.91 -10.98 M43.91 0 C43.91 -2.97, 43.91 -5.94, 43.91 -10.98 M43.91 -10.98 C25.87 -10.98, 7.82 -10.98, -3.66 -10.98 M43.91 -10.98 C33.85 -10.98, 23.8 -10.98, -3.66 -10.98 M-3.66 -10.98 C-3.66 -8.12, -3.66 -5.27, -3.66 0 M-3.66 -10.98 C-3.66 -7.28, -3.66 -3.59, -3.66 0 M-3.66 0 C-2.67 0, -1.68 0, 0 0 M-3.66 0 C-2.8 0, -1.94 0, 0 0 M0 0 C0 0, 0 0, 0 0 M0 0 C0 0, 0 0, 0 0" stroke="black" stroke-width="1" fill="none"/></g></g><g stroke-linecap="round" transform="translate(119.60025267902475 41.615484735364674) rotate(0 13.541159266872704 2.667198037414323)"><path d="M0 0 L27.08 0 L27.08 5.33 L0 5.33" stroke="none" stroke-width="0" fill="#E6D2C1"/><path d="M0 0 C5.53 0, 11.05 0, 27.08 0 M0 0 C7.07 0, 14.13 0, 27.08 0 M27.08 0 C27.08 1.24, 27.08 2.49, 27.08 5.33 M27.08 0 C27.08 1.2, 27.08 2.4, 27.08 5.33 M27.08 5.33 C17.64 5.33, 8.2 5.33, 0 5.33 M27.08 5.33 C19.61 5.33, 12.13 5.33, 0 5.33 M0 5.33 C0 3.67, 0 2.01, 0 0 M0 5.33 C0 4.08, 0 2.82, 0 0" stroke="black" stroke-width="1" fill="none"/></g><g stroke-linecap="round" transform="translate(115.80462470270359 43.25683737377321) rotate(0 17.18291043334225 1.8465217182099138)"><path d="M0 0 L34.37 0 L34.37 3.69 L0 3.69" stroke="none" stroke-width="0" fill="#E6D2C1"/><path d="M0 0 C8.17 0, 16.33 0, 34.37 0 M0 0 C9.29 0, 18.59 0, 34.37 0 M34.37 0 C34.37 1.46, 34.37 2.92, 34.37 3.69 M34.37 0 C34.37 0.84, 34.37 1.67, 34.37 3.69 M34.37 3.69 C27.39 3.69, 20.41 3.69, 0 3.69 M34.37 3.69 C25.97 3.69, 17.58 3.69, 0 3.69 M0 3.69 C0 2.66, 0 1.64, 0 0 M0 3.69 C0 2.83, 0 1.97, 0 0" stroke="black" stroke-width="1" fill="none"/></g><g stroke-linecap="round" transform="translate(111.7012431066818 45.10335909198338) rotate(0 21.38887656926483 0.9745531290552378)"><path d="M0 0 L42.78 0 L42.78 1.95 L0 1.95" stroke="none" stroke-width="0" fill="#E6D2C1"/><path d="M0 0 C10.8 0, 21.59 0, 42.78 0 M0 0 C10.45 0, 20.89 0, 42.78 0 M42.78 0 C42.78 0.6, 42.78 1.2, 42.78 1.95 M42.78 0 C42.78 0.51, 42.78 1.02, 42.78 1.95 M42.78 1.95 C28.26 1.95, 13.75 1.95, 0 1.95 M42.78 1.95 C29.14 1.95, 15.5 1.95, 0 1.95 M0 1.95 C0 1.47, 0 0.99, 0 0 M0 1.95 C0 1.28, 0 0.62, 0 0" stroke="black" stroke-width="1" fill="none"/></g></svg>